{
    "asset" : {
        "generator" : "Khronos glTF Blender I/O v1.4.40",
        "version" : "2.0"
    },
    "scene" : 0,
    "scenes" : [
        {
            "name" : "Scene",
            "nodes" : [
                0,
                1,
                2,
                3,
                4,
                5,
                6,
                7
            ]
        }
    ],
    "nodes" : [
        {
            "mesh" : 0,
            "name" : "Cube.015",
            "scale" : [
                1,
                1,
                0.8281040191650391
            ],
            "translation" : [
                0.4374779164791107,
                -0.2386859953403473,
                -0.3106650412082672
            ]
        },
        {
            "mesh" : 1,
            "name" : "Cube.016",
            "scale" : [
                1,
                1,
                0.8281040191650391
            ],
            "translation" : [
                0.4374779164791107,
                -0.2386859953403473,
                -0.3106650412082672
            ]
        },
        {
            "mesh" : 2,
            "name" : "Cylinder.083",
            "rotation" : [
                0.7071068286895752,
                0,
                0,
                0.7071068286895752
            ],
            "scale" : [
                0.01593707501888275,
                0.01593707501888275,
                0.01593707501888275
            ],
            "translation" : [
                0.4374779164791107,
                -0.2386859953403473,
                -0.2806931734085083
            ]
        },
        {
            "mesh" : 3,
            "name" : "Cylinder.084",
            "rotation" : [
                0.7071068286895752,
                0,
                0,
                0.7071068286895752
            ],
            "scale" : [
                0.018938016146421432,
                0.018938016146421432,
                0.018938016146421432
            ],
            "translation" : [
                0.4374779164791107,
                -0.2386859953403473,
                -0.2514955997467041
            ]
        },
        {
            "mesh" : 4,
            "name" : "Cylinder.085",
            "rotation" : [
                0,
                0,
                0.7071067690849304,
                -0.7071068286895752
            ],
            "scale" : [
                0.2214367389678955,
                0.22143682837486267,
                0.2214364856481552
            ],
            "translation" : [
                0.40544840693473816,
                -0.20746254920959473,
                -0.27689510583877563
            ]
        },
        {
            "mesh" : 5,
            "name" : "Cylinder.086",
            "rotation" : [
                0,
                0,
                0,
                -1
            ],
            "scale" : [
                0.2214367389678955,
                0.22143682837486267,
                0.2214364856481552
            ],
            "translation" : [
                0.4692469537258148,
                -0.20746254920959473,
                -0.27689510583877563
            ]
        },
        {
            "mesh" : 6,
            "name" : "Cylinder.087",
            "rotation" : [
                0,
                0,
                0.4617486596107483,
                -0.887010931968689
            ],
            "scale" : [
                0.2214367389678955,
                0.22143682837486267,
                0.2214364856481552
            ],
            "translation" : [
                0.4692469537258148,
                -0.2719055414199829,
                -0.27689510583877563
            ]
        },
        {
            "mesh" : 7,
            "name" : "Cylinder.088",
            "rotation" : [
                0,
                0,
                0.2588190734386444,
                -0.965925931930542
            ],
            "scale" : [
                0.2214367389678955,
                0.22143682837486267,
                0.2214364856481552
            ],
            "translation" : [
                0.4059317111968994,
                -0.2719055414199829,
                -0.27689510583877563
            ]
        }
    ],
    "materials" : [
        {
            "doubleSided" : true,
            "name" : "Material.015",
            "pbrMetallicRoughness" : {
                "baseColorFactor" : [
                    0,
                    0,
                    0,
                    1
                ],
                "metallicFactor" : 0,
                "roughnessFactor" : 0.5
            }
        },
        {
            "doubleSided" : true,
            "name" : "Material.018",
            "pbrMetallicRoughness" : {
                "baseColorFactor" : [
                    1,
                    0.47895553708076477,
                    0.0054695564322173595,
                    1
                ],
                "metallicFactor" : 0,
                "roughnessFactor" : 0.5
            }
        },
        {
            "doubleSided" : true,
            "name" : "Material.019",
            "pbrMetallicRoughness" : {
                "baseColorFactor" : [
                    1,
                    0.022282151505351067,
                    0,
                    1
                ],
                "metallicFactor" : 0,
                "roughnessFactor" : 0.5
            }
        },
        {
            "doubleSided" : true,
            "name" : "Metall Texture.003",
            "pbrMetallicRoughness" : {
                "baseColorTexture" : {
                    "index" : 0,
                    "texCoord" : 0
                },
                "metallicRoughnessTexture" : {
                    "index" : 1,
                    "texCoord" : 0
                },
                "roughnessFactor" : 0.4000000059604645
            }
        }
    ],
    "meshes" : [
        {
            "name" : "Cube.023",
            "primitives" : [
                {
                    "attributes" : {
                        "POSITION" : 0,
                        "NORMAL" : 1,
                        "TEXCOORD_0" : 2
                    },
                    "indices" : 3,
                    "material" : 0
                }
            ]
        },
        {
            "name" : "Cube.024",
            "primitives" : [
                {
                    "attributes" : {
                        "POSITION" : 4,
                        "NORMAL" : 5,
                        "TEXCOORD_0" : 6
                    },
                    "indices" : 7,
                    "material" : 1
                }
            ]
        },
        {
            "name" : "Cylinder.123",
            "primitives" : [
                {
                    "attributes" : {
                        "POSITION" : 8,
                        "NORMAL" : 9,
                        "TEXCOORD_0" : 10
                    },
                    "indices" : 11,
                    "material" : 0
                }
            ]
        },
        {
            "name" : "Cylinder.124",
            "primitives" : [
                {
                    "attributes" : {
                        "POSITION" : 12,
                        "NORMAL" : 13,
                        "TEXCOORD_0" : 14
                    },
                    "indices" : 11,
                    "material" : 2
                }
            ]
        },
        {
            "name" : "Cylinder.125",
            "primitives" : [
                {
                    "attributes" : {
                        "POSITION" : 15,
                        "NORMAL" : 16,
                        "TEXCOORD_0" : 17
                    },
                    "indices" : 18,
                    "material" : 3
                }
            ]
        },
        {
            "name" : "Cylinder.126",
            "primitives" : [
                {
                    "attributes" : {
                        "POSITION" : 19,
                        "NORMAL" : 20,
                        "TEXCOORD_0" : 21
                    },
                    "indices" : 18,
                    "material" : 3
                }
            ]
        },
        {
            "name" : "Cylinder.127",
            "primitives" : [
                {
                    "attributes" : {
                        "POSITION" : 22,
                        "NORMAL" : 23,
                        "TEXCOORD_0" : 24
                    },
                    "indices" : 18,
                    "material" : 3
                }
            ]
        },
        {
            "name" : "Cylinder.128",
            "primitives" : [
                {
                    "attributes" : {
                        "POSITION" : 25,
                        "NORMAL" : 26,
                        "TEXCOORD_0" : 27
                    },
                    "indices" : 18,
                    "material" : 3
                }
            ]
        }
    ],
    "textures" : [
        {
            "sampler" : 0,
            "source" : 0
        },
        {
            "sampler" : 0,
            "source" : 1
        }
    ],
    "images" : [
        {
            "bufferView" : 19,
            "mimeType" : "image/jpeg",
            "name" : "MetalStainlessSteelBrushedElongated005_COL_3K_METALNESS"
        },
        {
            "bufferView" : 20,
            "mimeType" : "image/png",
            "name" : "MetalStainlessSteelBrushedElongated005_METALNESS_3K_METALNESS"
        }
    ],
    "accessors" : [
        {
            "bufferView" : 0,
            "componentType" : 5126,
            "count" : 80,
            "max" : [
                0.04000000283122063,
                0.04000000283122063,
                0.013780582696199417
            ],
            "min" : [
                -0.04000000283122063,
                -0.04000000283122063,
                -0.04000000283122063
            ],
            "type" : "VEC3"
        },
        {
            "bufferView" : 1,
            "componentType" : 5126,
            "count" : 80,
            "type" : "VEC3"
        },
        {
            "bufferView" : 2,
            "componentType" : 5126,
            "count" : 80,
            "type" : "VEC2"
        },
        {
            "bufferView" : 3,
            "componentType" : 5123,
            "count" : 210,
            "type" : "SCALAR"
        },
        {
            "bufferView" : 4,
            "componentType" : 5126,
            "count" : 80,
            "max" : [
                0.04000000283122063,
                0.04000000283122063,
                0.04000000283122063
            ],
            "min" : [
                -0.04000000283122063,
                -0.04000000283122063,
                0
            ],
            "type" : "VEC3"
        },
        {
            "bufferView" : 5,
            "componentType" : 5126,
            "count" : 80,
            "type" : "VEC3"
        },
        {
            "bufferView" : 6,
            "componentType" : 5126,
            "count" : 80,
            "type" : "VEC2"
        },
        {
            "bufferView" : 7,
            "componentType" : 5123,
            "count" : 210,
            "type" : "SCALAR"
        },
        {
            "bufferView" : 8,
            "componentType" : 5126,
            "count" : 130,
            "max" : [
                1,
                1,
                1
            ],
            "min" : [
                -1,
                -1,
                -1
            ],
            "type" : "VEC3"
        },
        {
            "bufferView" : 9,
            "componentType" : 5126,
            "count" : 130,
            "type" : "VEC3"
        },
        {
            "bufferView" : 10,
            "componentType" : 5126,
            "count" : 130,
            "type" : "VEC2"
        },
        {
            "bufferView" : 11,
            "componentType" : 5123,
            "count" : 372,
            "type" : "SCALAR"
        },
        {
            "bufferView" : 12,
            "componentType" : 5126,
            "count" : 130,
            "max" : [
                1.0809041261672974,
                1,
                1.0809041261672974
            ],
            "min" : [
                -1.0809043645858765,
                -1,
                -1.0809043645858765
            ],
            "type" : "VEC3"
        },
        {
            "bufferView" : 13,
            "componentType" : 5126,
            "count" : 130,
            "type" : "VEC3"
        },
        {
            "bufferView" : 14,
            "componentType" : 5126,
            "count" : 130,
            "type" : "VEC2"
        },
        {
            "bufferView" : 15,
            "componentType" : 5126,
            "count" : 660,
            "max" : [
                0.013454794883728027,
                0.013454869389533997,
                0.004669487476348877
            ],
            "min" : [
                -0.013454794883728027,
                -0.013454541563987732,
                -0.019846349954605103
            ],
            "type" : "VEC3"
        },
        {
            "bufferView" : 16,
            "componentType" : 5126,
            "count" : 660,
            "type" : "VEC3"
        },
        {
            "bufferView" : 17,
            "componentType" : 5126,
            "count" : 660,
            "type" : "VEC2"
        },
        {
            "bufferView" : 18,
            "componentType" : 5123,
            "count" : 1827,
            "type" : "SCALAR"
        },
        {
            "bufferView" : 21,
            "componentType" : 5126,
            "count" : 660,
            "max" : [
                0.013454794883728027,
                0.013454869389533997,
                0.004669487476348877
            ],
            "min" : [
                -0.013454794883728027,
                -0.013454541563987732,
                -0.019846349954605103
            ],
            "type" : "VEC3"
        },
        {
            "bufferView" : 22,
            "componentType" : 5126,
            "count" : 660,
            "type" : "VEC3"
        },
        {
            "bufferView" : 23,
            "componentType" : 5126,
            "count" : 660,
            "type" : "VEC2"
        },
        {
            "bufferView" : 24,
            "componentType" : 5126,
            "count" : 660,
            "max" : [
                0.013454794883728027,
                0.013454869389533997,
                0.004669487476348877
            ],
            "min" : [
                -0.013454794883728027,
                -0.013454541563987732,
                -0.019846349954605103
            ],
            "type" : "VEC3"
        },
        {
            "bufferView" : 25,
            "componentType" : 5126,
            "count" : 660,
            "type" : "VEC3"
        },
        {
            "bufferView" : 26,
            "componentType" : 5126,
            "count" : 660,
            "type" : "VEC2"
        },
        {
            "bufferView" : 27,
            "componentType" : 5126,
            "count" : 660,
            "max" : [
                0.013454794883728027,
                0.013454869389533997,
                0.004669487476348877
            ],
            "min" : [
                -0.013454794883728027,
                -0.013454541563987732,
                -0.019846349954605103
            ],
            "type" : "VEC3"
        },
        {
            "bufferView" : 28,
            "componentType" : 5126,
            "count" : 660,
            "type" : "VEC3"
        },
        {
            "bufferView" : 29,
            "componentType" : 5126,
            "count" : 660,
            "type" : "VEC2"
        }
    ],
    "bufferViews" : [
        {
            "buffer" : 0,
            "byteLength" : 960,
            "byteOffset" : 0
        },
        {
            "buffer" : 0,
            "byteLength" : 960,
            "byteOffset" : 960
        },
        {
            "buffer" : 0,
            "byteLength" : 640,
            "byteOffset" : 1920
        },
        {
            "buffer" : 0,
            "byteLength" : 420,
            "byteOffset" : 2560
        },
        {
            "buffer" : 0,
            "byteLength" : 960,
            "byteOffset" : 2980
        },
        {
            "buffer" : 0,
            "byteLength" : 960,
            "byteOffset" : 3940
        },
        {
            "buffer" : 0,
            "byteLength" : 640,
            "byteOffset" : 4900
        },
        {
            "buffer" : 0,
            "byteLength" : 420,
            "byteOffset" : 5540
        },
        {
            "buffer" : 0,
            "byteLength" : 1560,
            "byteOffset" : 5960
        },
        {
            "buffer" : 0,
            "byteLength" : 1560,
            "byteOffset" : 7520
        },
        {
            "buffer" : 0,
            "byteLength" : 1040,
            "byteOffset" : 9080
        },
        {
            "buffer" : 0,
            "byteLength" : 744,
            "byteOffset" : 10120
        },
        {
            "buffer" : 0,
            "byteLength" : 1560,
            "byteOffset" : 10864
        },
        {
            "buffer" : 0,
            "byteLength" : 1560,
            "byteOffset" : 12424
        },
        {
            "buffer" : 0,
            "byteLength" : 1040,
            "byteOffset" : 13984
        },
        {
            "buffer" : 0,
            "byteLength" : 7920,
            "byteOffset" : 15024
        },
        {
            "buffer" : 0,
            "byteLength" : 7920,
            "byteOffset" : 22944
        },
        {
            "buffer" : 0,
            "byteLength" : 5280,
            "byteOffset" : 30864
        },
        {
            "buffer" : 0,
            "byteLength" : 3654,
            "byteOffset" : 36144
        },
        {
            "buffer" : 0,
            "byteLength" : 637978,
            "byteOffset" : 39800
        },
        {
            "buffer" : 0,
            "byteLength" : 130985,
            "byteOffset" : 677780
        },
        {
            "buffer" : 0,
            "byteLength" : 7920,
            "byteOffset" : 808768
        },
        {
            "buffer" : 0,
            "byteLength" : 7920,
            "byteOffset" : 816688
        },
        {
            "buffer" : 0,
            "byteLength" : 5280,
            "byteOffset" : 824608
        },
        {
            "buffer" : 0,
            "byteLength" : 7920,
            "byteOffset" : 829888
        },
        {
            "buffer" : 0,
            "byteLength" : 7920,
            "byteOffset" : 837808
        },
        {
            "buffer" : 0,
            "byteLength" : 5280,
            "byteOffset" : 845728
        },
        {
            "buffer" : 0,
            "byteLength" : 7920,
            "byteOffset" : 851008
        },
        {
            "buffer" : 0,
            "byteLength" : 7920,
            "byteOffset" : 858928
        },
        {
            "buffer" : 0,
            "byteLength" : 5280,
            "byteOffset" : 866848
        }
    ],
    "samplers" : [
        {
            "magFilter" : 9729,
            "minFilter" : 9986
        }
    ],
    "buffers" : [
        {
            "byteLength" : 872128,
            "uri" : "data:application/octet-stream;base64,"
        }
    ]
}
