{
    "asset" : {
        "generator" : "Khronos glTF Blender I/O v1.4.40",
        "version" : "2.0"
    },
    "extensionsUsed" : [
        "KHR_texture_transform"
    ],
    "extensionsRequired" : [
        "KHR_texture_transform"
    ],
    "scene" : 0,
    "scenes" : [
        {
            "name" : "Scene",
            "nodes" : [
                0,
                1,
                2,
                3,
                4,
                5,
                6,
                7
            ]
        }
    ],
    "nodes" : [
        {
            "mesh" : 0,
            "name" : "Cylinder.168",
            "scale" : [
                0.05989681929349899,
                0.04154719412326813,
                0.05989681929349899
            ],
            "translation" : [
                3.3692986965179443,
                1.8890124559402466,
                1.0106090307235718
            ]
        },
        {
            "mesh" : 1,
            "name" : "Cylinder.169",
            "scale" : [
                0.05989681929349899,
                0.04154719412326813,
                0.05989681929349899
            ],
            "translation" : [
                3.3692986965179443,
                1.8890124559402466,
                1.0106090307235718
            ]
        },
        {
            "mesh" : 2,
            "name" : "Cylinder.170",
            "scale" : [
                0.05989681929349899,
                0.04154719412326813,
                0.05989681929349899
            ],
            "translation" : [
                4.233526229858398,
                2.2050740718841553,
                1.0106087923049927
            ]
        },
        {
            "mesh" : 3,
            "name" : "Cylinder.171",
            "scale" : [
                0.00618749437853694,
                1,
                0.00618749437853694
            ],
            "translation" : [
                4.165675163269043,
                2.0960028171539307,
                1.084250569343567
            ]
        },
        {
            "mesh" : 4,
            "name" : "Cube.029",
            "rotation" : [
                0,
                0,
                -0.446281760931015,
                0.8948925137519836
            ],
            "translation" : [
                4.219327926635742,
                2.2515201568603516,
                1.0840916633605957
            ]
        },
        {
            "mesh" : 5,
            "name" : "Cylinder.172",
            "rotation" : [
                0,
                0,
                -0.7071067690849304,
                0.7071068286895752
            ],
            "scale" : [
                0.33215510845184326,
                0.3321552276611328,
                0.3321547210216522
            ],
            "translation" : [
                4.165538311004639,
                2.3156111240386963,
                1.0935498476028442
            ]
        },
        {
            "mesh" : 6,
            "name" : "Cylinder.173",
            "rotation" : [
                0.953717052936554,
                0.30070579051971436,
                0,
                -6.101479357312201e-07
            ],
            "scale" : [
                0.33215510845184326,
                0.3321552276611328,
                0.3321547210216522
            ],
            "translation" : [
                4.165538311004639,
                2.3156111240386963,
                1.0749897956848145
            ]
        },
        {
            "mesh" : 7,
            "name" : "Cylinder.174",
            "rotation" : [
                0,
                0,
                -0.7017383575439453,
                -0.7124347686767578
            ],
            "scale" : [
                0.33215510845184326,
                0.3321552276611328,
                0.3321547210216522
            ],
            "translation" : [
                4.2549519538879395,
                2.2051002979278564,
                1.0881744623184204
            ]
        }
    ],
    "materials" : [
        {
            "doubleSided" : true,
            "name" : "Gummi",
            "pbrMetallicRoughness" : {
                "baseColorTexture" : {
                    "extensions" : {
                        "KHR_texture_transform" : {
                            "offset" : [
                                0,
                                -99
                            ],
                            "scale" : [
                                100,
                                100
                            ]
                        }
                    },
                    "index" : 0,
                    "texCoord" : 0
                },
                "metallicFactor" : 0,
                "roughnessFactor" : 0.5
            }
        },
        {
            "doubleSided" : true,
            "name" : "Plastik.023",
            "pbrMetallicRoughness" : {
                "baseColorFactor" : [
                    0,
                    0.2140328735113144,
                    0.06432673335075378,
                    1
                ],
                "metallicFactor" : 0,
                "roughnessFactor" : 0.20000000298023224
            }
        },
        {
            "doubleSided" : true,
            "name" : "Metall Texture.003",
            "pbrMetallicRoughness" : {
                "baseColorTexture" : {
                    "index" : 1,
                    "texCoord" : 0
                },
                "metallicRoughnessTexture" : {
                    "index" : 2,
                    "texCoord" : 0
                },
                "roughnessFactor" : 0.4000000059604645
            }
        }
    ],
    "meshes" : [
        {
            "name" : "Cylinder.209",
            "primitives" : [
                {
                    "attributes" : {
                        "POSITION" : 0,
                        "NORMAL" : 1,
                        "TEXCOORD_0" : 2
                    },
                    "indices" : 3,
                    "material" : 0
                }
            ]
        },
        {
            "name" : "Cylinder.210",
            "primitives" : [
                {
                    "attributes" : {
                        "POSITION" : 4,
                        "NORMAL" : 5,
                        "TEXCOORD_0" : 6
                    },
                    "indices" : 7,
                    "material" : 1
                }
            ]
        },
        {
            "name" : "Cylinder.211",
            "primitives" : [
                {
                    "attributes" : {
                        "POSITION" : 8,
                        "NORMAL" : 9,
                        "TEXCOORD_0" : 10
                    },
                    "indices" : 11,
                    "material" : 2
                }
            ]
        },
        {
            "name" : "Cylinder.212",
            "primitives" : [
                {
                    "attributes" : {
                        "POSITION" : 12,
                        "NORMAL" : 13,
                        "TEXCOORD_0" : 14
                    },
                    "indices" : 15,
                    "material" : 1
                }
            ]
        },
        {
            "name" : "Cube.037",
            "primitives" : [
                {
                    "attributes" : {
                        "POSITION" : 16,
                        "NORMAL" : 17,
                        "TEXCOORD_0" : 18
                    },
                    "indices" : 19,
                    "material" : 1
                }
            ]
        },
        {
            "name" : "Cylinder.213",
            "primitives" : [
                {
                    "attributes" : {
                        "POSITION" : 20,
                        "NORMAL" : 21,
                        "TEXCOORD_0" : 22
                    },
                    "indices" : 23,
                    "material" : 2
                }
            ]
        },
        {
            "name" : "Cylinder.214",
            "primitives" : [
                {
                    "attributes" : {
                        "POSITION" : 24,
                        "NORMAL" : 25,
                        "TEXCOORD_0" : 26
                    },
                    "indices" : 23,
                    "material" : 2
                }
            ]
        },
        {
            "name" : "Cylinder.215",
            "primitives" : [
                {
                    "attributes" : {
                        "POSITION" : 27,
                        "NORMAL" : 28,
                        "TEXCOORD_0" : 29
                    },
                    "indices" : 30,
                    "material" : 2
                }
            ]
        }
    ],
    "textures" : [
        {
            "sampler" : 0,
            "source" : 0
        },
        {
            "sampler" : 0,
            "source" : 1
        },
        {
            "sampler" : 0,
            "source" : 2
        }
    ],
    "images" : [
        {
            "bufferView" : 4,
            "mimeType" : "image/jpeg",
            "name" : "FabricFleece001_COL_VAR2_3K"
        },
        {
            "bufferView" : 13,
            "mimeType" : "image/jpeg",
            "name" : "MetalStainlessSteelBrushedElongated005_COL_3K_METALNESS"
        },
        {
            "bufferView" : 14,
            "mimeType" : "image/png",
            "name" : "MetalStainlessSteelBrushedElongated005_METALNESS_3K_METALNESS"
        }
    ],
    "accessors" : [
        {
            "bufferView" : 0,
            "componentType" : 5126,
            "count" : 726,
            "max" : [
                1,
                2.1764862537384033,
                1
            ],
            "min" : [
                -1,
                -1.648271918296814,
                -1
            ],
            "type" : "VEC3"
        },
        {
            "bufferView" : 1,
            "componentType" : 5126,
            "count" : 726,
            "type" : "VEC3"
        },
        {
            "bufferView" : 2,
            "componentType" : 5126,
            "count" : 726,
            "type" : "VEC2"
        },
        {
            "bufferView" : 3,
            "componentType" : 5123,
            "count" : 4224,
            "type" : "SCALAR"
        },
        {
            "bufferView" : 5,
            "componentType" : 5126,
            "count" : 1450,
            "max" : [
                16.900659561157227,
                9.431305885314941,
                1.265212893486023
            ],
            "min" : [
                -0.5209728479385376,
                2.0997884273529053,
                -1.26521897315979
            ],
            "type" : "VEC3"
        },
        {
            "bufferView" : 6,
            "componentType" : 5126,
            "count" : 1450,
            "type" : "VEC3"
        },
        {
            "bufferView" : 7,
            "componentType" : 5126,
            "count" : 1450,
            "type" : "VEC2"
        },
        {
            "bufferView" : 8,
            "componentType" : 5123,
            "count" : 8052,
            "type" : "SCALAR"
        },
        {
            "bufferView" : 9,
            "componentType" : 5126,
            "count" : 1106,
            "max" : [
                0.7361783981323242,
                1.1754612922668457,
                0.8153523206710815
            ],
            "min" : [
                -0.43138694763183594,
                -1.17545747756958,
                -0.8153520226478577
            ],
            "type" : "VEC3"
        },
        {
            "bufferView" : 10,
            "componentType" : 5126,
            "count" : 1106,
            "type" : "VEC3"
        },
        {
            "bufferView" : 11,
            "componentType" : 5126,
            "count" : 1106,
            "type" : "VEC2"
        },
        {
            "bufferView" : 12,
            "componentType" : 5123,
            "count" : 3840,
            "type" : "SCALAR"
        },
        {
            "bufferView" : 15,
            "componentType" : 5126,
            "count" : 1031,
            "max" : [
                29.30651092529297,
                0.2321282923221588,
                1.289668321609497
            ],
            "min" : [
                -30.48438835144043,
                -1.3641690015792847,
                -1.2896642684936523
            ],
            "type" : "VEC3"
        },
        {
            "bufferView" : 16,
            "componentType" : 5126,
            "count" : 1031,
            "type" : "VEC3"
        },
        {
            "bufferView" : 17,
            "componentType" : 5126,
            "count" : 1031,
            "type" : "VEC2"
        },
        {
            "bufferView" : 18,
            "componentType" : 5123,
            "count" : 5364,
            "type" : "SCALAR"
        },
        {
            "bufferView" : 19,
            "componentType" : 5126,
            "count" : 83,
            "max" : [
                0.07078651338815689,
                0.024953601881861687,
                0.009734252467751503
            ],
            "min" : [
                -0.10265693813562393,
                -0.019122060388326645,
                -0.009734252467751503
            ],
            "type" : "VEC3"
        },
        {
            "bufferView" : 20,
            "componentType" : 5126,
            "count" : 83,
            "type" : "VEC3"
        },
        {
            "bufferView" : 21,
            "componentType" : 5126,
            "count" : 83,
            "type" : "VEC2"
        },
        {
            "bufferView" : 22,
            "componentType" : 5123,
            "count" : 144,
            "type" : "SCALAR"
        },
        {
            "bufferView" : 23,
            "componentType" : 5126,
            "count" : 660,
            "max" : [
                0.013454794883728027,
                0.013454869389533997,
                0.004669487476348877
            ],
            "min" : [
                -0.013454794883728027,
                -0.013454541563987732,
                -0.019846349954605103
            ],
            "type" : "VEC3"
        },
        {
            "bufferView" : 24,
            "componentType" : 5126,
            "count" : 660,
            "type" : "VEC3"
        },
        {
            "bufferView" : 25,
            "componentType" : 5126,
            "count" : 660,
            "type" : "VEC2"
        },
        {
            "bufferView" : 26,
            "componentType" : 5123,
            "count" : 1827,
            "type" : "SCALAR"
        },
        {
            "bufferView" : 27,
            "componentType" : 5126,
            "count" : 660,
            "max" : [
                0.013454794883728027,
                0.013454869389533997,
                0.004669487476348877
            ],
            "min" : [
                -0.013454794883728027,
                -0.013454541563987732,
                -0.019846349954605103
            ],
            "type" : "VEC3"
        },
        {
            "bufferView" : 28,
            "componentType" : 5126,
            "count" : 660,
            "type" : "VEC3"
        },
        {
            "bufferView" : 29,
            "componentType" : 5126,
            "count" : 660,
            "type" : "VEC2"
        },
        {
            "bufferView" : 30,
            "componentType" : 5126,
            "count" : 847,
            "max" : [
                0.029290463775396347,
                0.028764771297574043,
                0.020852943882346153
            ],
            "min" : [
                -0.027376379817724228,
                -0.027902064844965935,
                -0.1142597571015358
            ],
            "type" : "VEC3"
        },
        {
            "bufferView" : 31,
            "componentType" : 5126,
            "count" : 847,
            "type" : "VEC3"
        },
        {
            "bufferView" : 32,
            "componentType" : 5126,
            "count" : 847,
            "type" : "VEC2"
        },
        {
            "bufferView" : 33,
            "componentType" : 5123,
            "count" : 2841,
            "type" : "SCALAR"
        }
    ],
    "bufferViews" : [
        {
            "buffer" : 0,
            "byteLength" : 8712,
            "byteOffset" : 0
        },
        {
            "buffer" : 0,
            "byteLength" : 8712,
            "byteOffset" : 8712
        },
        {
            "buffer" : 0,
            "byteLength" : 5808,
            "byteOffset" : 17424
        },
        {
            "buffer" : 0,
            "byteLength" : 8448,
            "byteOffset" : 23232
        },
        {
            "buffer" : 0,
            "byteLength" : 1032031,
            "byteOffset" : 31680
        },
        {
            "buffer" : 0,
            "byteLength" : 17400,
            "byteOffset" : 1063712
        },
        {
            "buffer" : 0,
            "byteLength" : 17400,
            "byteOffset" : 1081112
        },
        {
            "buffer" : 0,
            "byteLength" : 11600,
            "byteOffset" : 1098512
        },
        {
            "buffer" : 0,
            "byteLength" : 16104,
            "byteOffset" : 1110112
        },
        {
            "buffer" : 0,
            "byteLength" : 13272,
            "byteOffset" : 1126216
        },
        {
            "buffer" : 0,
            "byteLength" : 13272,
            "byteOffset" : 1139488
        },
        {
            "buffer" : 0,
            "byteLength" : 8848,
            "byteOffset" : 1152760
        },
        {
            "buffer" : 0,
            "byteLength" : 7680,
            "byteOffset" : 1161608
        },
        {
            "buffer" : 0,
            "byteLength" : 637978,
            "byteOffset" : 1169288
        },
        {
            "buffer" : 0,
            "byteLength" : 130985,
            "byteOffset" : 1807268
        },
        {
            "buffer" : 0,
            "byteLength" : 12372,
            "byteOffset" : 1938256
        },
        {
            "buffer" : 0,
            "byteLength" : 12372,
            "byteOffset" : 1950628
        },
        {
            "buffer" : 0,
            "byteLength" : 8248,
            "byteOffset" : 1963000
        },
        {
            "buffer" : 0,
            "byteLength" : 10728,
            "byteOffset" : 1971248
        },
        {
            "buffer" : 0,
            "byteLength" : 996,
            "byteOffset" : 1981976
        },
        {
            "buffer" : 0,
            "byteLength" : 996,
            "byteOffset" : 1982972
        },
        {
            "buffer" : 0,
            "byteLength" : 664,
            "byteOffset" : 1983968
        },
        {
            "buffer" : 0,
            "byteLength" : 288,
            "byteOffset" : 1984632
        },
        {
            "buffer" : 0,
            "byteLength" : 7920,
            "byteOffset" : 1984920
        },
        {
            "buffer" : 0,
            "byteLength" : 7920,
            "byteOffset" : 1992840
        },
        {
            "buffer" : 0,
            "byteLength" : 5280,
            "byteOffset" : 2000760
        },
        {
            "buffer" : 0,
            "byteLength" : 3654,
            "byteOffset" : 2006040
        },
        {
            "buffer" : 0,
            "byteLength" : 7920,
            "byteOffset" : 2009696
        },
        {
            "buffer" : 0,
            "byteLength" : 7920,
            "byteOffset" : 2017616
        },
        {
            "buffer" : 0,
            "byteLength" : 5280,
            "byteOffset" : 2025536
        },
        {
            "buffer" : 0,
            "byteLength" : 10164,
            "byteOffset" : 2030816
        },
        {
            "buffer" : 0,
            "byteLength" : 10164,
            "byteOffset" : 2040980
        },
        {
            "buffer" : 0,
            "byteLength" : 6776,
            "byteOffset" : 2051144
        },
        {
            "buffer" : 0,
            "byteLength" : 5682,
            "byteOffset" : 2057920
        }
    ],
    "samplers" : [
        {
            "magFilter" : 9729,
            "minFilter" : 9986
        }
    ],
    "buffers" : [
        {
            "byteLength" : 2063604,
            "uri" : "data:application/octet-stream;base64,"
        }
    ]
}
