{
    "asset" : {
        "generator" : "Khronos glTF Blender I/O v1.4.40",
        "version" : "2.0"
    },
    "extensionsUsed" : [
        "KHR_texture_transform"
    ],
    "extensionsRequired" : [
        "KHR_texture_transform"
    ],
    "scene" : 0,
    "scenes" : [
        {
            "name" : "Scene",
            "nodes" : [
                0,
                1,
                2
            ]
        }
    ],
    "nodes" : [
        {
            "mesh" : 0,
            "name" : "Cube.030",
            "scale" : [
                1,
                1,
                0.8999999761581421
            ],
            "translation" : [
                0.4588277339935303,
                1.549360752105713,
                1.009773850440979
            ]
        },
        {
            "mesh" : 1,
            "name" : "Cube.031",
            "scale" : [
                0.9800000190734863,
                0.9800000190734863,
                0.8378999829292297
            ],
            "translation" : [
                0.4588277339935303,
                1.549360752105713,
                3.4437222480773926
            ]
        },
        {
            "mesh" : 2,
            "name" : "Cube.033",
            "scale" : [
                0.04351073130965233,
                0.0857512578368187,
                0.7968742847442627
            ],
            "translation" : [
                0.4650917947292328,
                0.07972654700279236,
                1.1639442443847656
            ]
        }
    ],
    "materials" : [
        {
            "doubleSided" : true,
            "name" : "Plastik.011",
            "pbrMetallicRoughness" : {
                "baseColorTexture" : {
                    "extensions" : {
                        "KHR_texture_transform" : {
                            "offset" : [
                                0,
                                -74
                            ],
                            "scale" : [
                                75,
                                75
                            ]
                        }
                    },
                    "index" : 0,
                    "texCoord" : 0
                },
                "metallicFactor" : 0,
                "roughnessFactor" : 0.8500000238418579
            }
        },
        {
            "doubleSided" : true,
            "name" : "Metall Texture.003",
            "pbrMetallicRoughness" : {
                "baseColorTexture" : {
                    "index" : 1,
                    "texCoord" : 0
                },
                "metallicRoughnessTexture" : {
                    "index" : 2,
                    "texCoord" : 0
                },
                "roughnessFactor" : 0.4000000059604645
            }
        }
    ],
    "meshes" : [
        {
            "name" : "Cube.038",
            "primitives" : [
                {
                    "attributes" : {
                        "POSITION" : 0,
                        "NORMAL" : 1,
                        "TEXCOORD_0" : 2
                    },
                    "indices" : 3,
                    "material" : 0
                }
            ]
        },
        {
            "name" : "Cube.044",
            "primitives" : [
                {
                    "attributes" : {
                        "POSITION" : 4,
                        "NORMAL" : 5,
                        "TEXCOORD_0" : 6
                    },
                    "indices" : 7,
                    "material" : 0
                },
                {
                    "attributes" : {
                        "POSITION" : 8,
                        "NORMAL" : 9,
                        "TEXCOORD_0" : 10
                    },
                    "indices" : 11,
                    "material" : 1
                }
            ]
        },
        {
            "name" : "Cube.046",
            "primitives" : [
                {
                    "attributes" : {
                        "POSITION" : 12,
                        "NORMAL" : 13,
                        "TEXCOORD_0" : 14
                    },
                    "indices" : 15,
                    "material" : 1
                }
            ]
        }
    ],
    "textures" : [
        {
            "sampler" : 0,
            "source" : 0
        },
        {
            "sampler" : 0,
            "source" : 1
        },
        {
            "sampler" : 0,
            "source" : 2
        }
    ],
    "images" : [
        {
            "bufferView" : 4,
            "mimeType" : "image/jpeg",
            "name" : "TerrazzoVenetianMatteWhite001_COL_3K_weiss"
        },
        {
            "bufferView" : 13,
            "mimeType" : "image/jpeg",
            "name" : "MetalStainlessSteelBrushedElongated005_COL_3K_METALNESS"
        },
        {
            "bufferView" : 14,
            "mimeType" : "image/png",
            "name" : "MetalStainlessSteelBrushedElongated005_METALNESS_3K_METALNESS"
        }
    ],
    "accessors" : [
        {
            "bufferView" : 0,
            "componentType" : 5126,
            "count" : 204,
            "max" : [
                0.456382155418396,
                2.0079550743103027,
                1.0693405866622925
            ],
            "min" : [
                -0.456382155418396,
                -2.0079550743103027,
                -0.9858262538909912
            ],
            "type" : "VEC3"
        },
        {
            "bufferView" : 1,
            "componentType" : 5126,
            "count" : 204,
            "type" : "VEC3"
        },
        {
            "bufferView" : 2,
            "componentType" : 5126,
            "count" : 204,
            "type" : "VEC2"
        },
        {
            "bufferView" : 3,
            "componentType" : 5123,
            "count" : 324,
            "type" : "SCALAR"
        },
        {
            "bufferView" : 5,
            "componentType" : 5126,
            "count" : 264,
            "max" : [
                0.456382155418396,
                2.0079550743103027,
                0.05762837082147598
            ],
            "min" : [
                -0.456382155418396,
                -1.949040174484253,
                -1.8688116073608398
            ],
            "type" : "VEC3"
        },
        {
            "bufferView" : 6,
            "componentType" : 5126,
            "count" : 264,
            "type" : "VEC3"
        },
        {
            "bufferView" : 7,
            "componentType" : 5126,
            "count" : 264,
            "type" : "VEC2"
        },
        {
            "bufferView" : 8,
            "componentType" : 5123,
            "count" : 456,
            "type" : "SCALAR"
        },
        {
            "bufferView" : 9,
            "componentType" : 5126,
            "count" : 17936,
            "max" : [
                0.2629619538784027,
                1.7261474132537842,
                0.18303519487380981
            ],
            "min" : [
                -0.25300681591033936,
                -1.5266497135162354,
                -2.1791768074035645
            ],
            "type" : "VEC3"
        },
        {
            "bufferView" : 10,
            "componentType" : 5126,
            "count" : 17936,
            "type" : "VEC3"
        },
        {
            "bufferView" : 11,
            "componentType" : 5126,
            "count" : 17936,
            "type" : "VEC2"
        },
        {
            "bufferView" : 12,
            "componentType" : 5123,
            "count" : 81966,
            "type" : "SCALAR"
        },
        {
            "bufferView" : 15,
            "componentType" : 5126,
            "count" : 40,
            "max" : [
                1,
                1,
                1
            ],
            "min" : [
                -1,
                -2.0912623405456543,
                -1
            ],
            "type" : "VEC3"
        },
        {
            "bufferView" : 16,
            "componentType" : 5126,
            "count" : 40,
            "type" : "VEC3"
        },
        {
            "bufferView" : 17,
            "componentType" : 5126,
            "count" : 40,
            "type" : "VEC2"
        },
        {
            "bufferView" : 18,
            "componentType" : 5123,
            "count" : 84,
            "type" : "SCALAR"
        }
    ],
    "bufferViews" : [
        {
            "buffer" : 0,
            "byteLength" : 2448,
            "byteOffset" : 0
        },
        {
            "buffer" : 0,
            "byteLength" : 2448,
            "byteOffset" : 2448
        },
        {
            "buffer" : 0,
            "byteLength" : 1632,
            "byteOffset" : 4896
        },
        {
            "buffer" : 0,
            "byteLength" : 648,
            "byteOffset" : 6528
        },
        {
            "buffer" : 0,
            "byteLength" : 1028392,
            "byteOffset" : 7176
        },
        {
            "buffer" : 0,
            "byteLength" : 3168,
            "byteOffset" : 1035568
        },
        {
            "buffer" : 0,
            "byteLength" : 3168,
            "byteOffset" : 1038736
        },
        {
            "buffer" : 0,
            "byteLength" : 2112,
            "byteOffset" : 1041904
        },
        {
            "buffer" : 0,
            "byteLength" : 912,
            "byteOffset" : 1044016
        },
        {
            "buffer" : 0,
            "byteLength" : 215232,
            "byteOffset" : 1044928
        },
        {
            "buffer" : 0,
            "byteLength" : 215232,
            "byteOffset" : 1260160
        },
        {
            "buffer" : 0,
            "byteLength" : 143488,
            "byteOffset" : 1475392
        },
        {
            "buffer" : 0,
            "byteLength" : 163932,
            "byteOffset" : 1618880
        },
        {
            "buffer" : 0,
            "byteLength" : 637978,
            "byteOffset" : 1782812
        },
        {
            "buffer" : 0,
            "byteLength" : 130985,
            "byteOffset" : 2420792
        },
        {
            "buffer" : 0,
            "byteLength" : 480,
            "byteOffset" : 2551780
        },
        {
            "buffer" : 0,
            "byteLength" : 480,
            "byteOffset" : 2552260
        },
        {
            "buffer" : 0,
            "byteLength" : 320,
            "byteOffset" : 2552740
        },
        {
            "buffer" : 0,
            "byteLength" : 168,
            "byteOffset" : 2553060
        }
    ],
    "samplers" : [
        {
            "magFilter" : 9729,
            "minFilter" : 9986
        }
    ],
    "buffers" : [
        {
            "byteLength" : 2553228,
            "uri" : "data:application/octet-stream;base64,"
        }
    ]
}
