{
    "asset" : {
        "generator" : "Khronos glTF Blender I/O v1.4.40",
        "version" : "2.0"
    },
    "extensionsUsed" : [
        "KHR_materials_transmission"
    ],
    "scene" : 0,
    "scenes" : [
        {
            "name" : "Scene",
            "nodes" : [
                0,
                1
            ]
        }
    ],
    "nodes" : [
        {
            "name" : "Empty.002",
            "rotation" : [
                0.7071067690849304,
                0,
                0,
                0.7071068286895752
            ]
        },
        {
            "mesh" : 0,
            "name" : "Cylinder.002",
            "translation" : [
                0.014499999582767487,
                0.054999999701976776,
                0
            ]
        }
    ],
    "materials" : [
        {
            "doubleSided" : true,
            "extensions" : {
                "KHR_materials_transmission" : {
                    "transmissionFactor" : 1
                }
            },
            "name" : "Material.001",
            "pbrMetallicRoughness" : {
                "baseColorFactor" : [
                    0.800000011920929,
                    0.800000011920929,
                    0.800000011920929,
                    1
                ],
                "metallicFactor" : 0,
                "roughnessFactor" : 0.5
            }
        }
    ],
    "meshes" : [
        {
            "name" : "Cylinder.003",
            "primitives" : [
                {
                    "attributes" : {
                        "POSITION" : 0,
                        "NORMAL" : 1,
                        "TEXCOORD_0" : 2
                    },
                    "indices" : 3,
                    "material" : 0
                }
            ]
        }
    ],
    "accessors" : [
        {
            "bufferView" : 0,
            "componentType" : 5126,
            "count" : 737,
            "max" : [
                0.18788401782512665,
                0.2322239875793457,
                0.18788403272628784
            ],
            "min" : [
                -0.21327024698257446,
                -0.2575557827949524,
                -0.18788401782512665
            ],
            "type" : "VEC3"
        },
        {
            "bufferView" : 1,
            "componentType" : 5126,
            "count" : 737,
            "type" : "VEC3"
        },
        {
            "bufferView" : 2,
            "componentType" : 5126,
            "count" : 737,
            "type" : "VEC2"
        },
        {
            "bufferView" : 3,
            "componentType" : 5123,
            "count" : 4194,
            "type" : "SCALAR"
        }
    ],
    "bufferViews" : [
        {
            "buffer" : 0,
            "byteLength" : 8844,
            "byteOffset" : 0
        },
        {
            "buffer" : 0,
            "byteLength" : 8844,
            "byteOffset" : 8844
        },
        {
            "buffer" : 0,
            "byteLength" : 5896,
            "byteOffset" : 17688
        },
        {
            "buffer" : 0,
            "byteLength" : 8388,
            "byteOffset" : 23584
        }
    ],
    "buffers" : [
        {
            "byteLength" : 31972,
            "uri" : "data:application/octet-stream;base64,"
        }
    ]
}
