{
    "asset" : {
        "generator" : "Khronos glTF Blender I/O v1.4.40",
        "version" : "2.0"
    },
    "extensionsUsed" : [
        "KHR_materials_transmission"
    ],
    "scene" : 0,
    "scenes" : [
        {
            "extras" : {
                "glTF2ExportSettings" : {
                    "export_apply" : 1,
                    "export_extras" : 1,
                    "export_format" : "GLTF_EMBEDDED",
                    "use_selection" : 1
                }
            },
            "name" : "Scene",
            "nodes" : [
                0,
                1
            ]
        }
    ],
    "nodes" : [
        {
            "mesh" : 0,
            "name" : "Cube.064",
            "translation" : [
                -1.7603399753570557,
                0.06920316815376282,
                0.16315099596977234
            ]
        },
        {
            "mesh" : 1,
            "name" : "Cylinder.233",
            "rotation" : [
                0,
                0,
                0.01915775053203106,
                0.9998164772987366
            ],
            "scale" : [
                0.06770207732915878,
                0.06770207732915878,
                0.06770207732915878
            ],
            "translation" : [
                -1.8825693130493164,
                0.3290577828884125,
                0.1631503850221634
            ]
        }
    ],
    "materials" : [
        {
            "doubleSided" : true,
            "extensions" : {
                "KHR_materials_transmission" : {
                    "transmissionFactor" : 0.800000011920929
                }
            },
            "name" : "Plastik,durchsichtig.002",
            "pbrMetallicRoughness" : {
                "metallicFactor" : 0,
                "roughnessFactor" : 0.6000000238418579
            }
        },
        {
            "doubleSided" : true,
            "name" : "Plastik.027",
            "pbrMetallicRoughness" : {
                "baseColorFactor" : [
                    0,
                    0,
                    0,
                    1
                ],
                "metallicFactor" : 0,
                "roughnessFactor" : 0.75
            }
        }
    ],
    "meshes" : [
        {
            "name" : "Cube.063",
            "primitives" : [
                {
                    "attributes" : {
                        "POSITION" : 0,
                        "NORMAL" : 1,
                        "TEXCOORD_0" : 2
                    },
                    "indices" : 3,
                    "material" : 0
                }
            ]
        },
        {
            "name" : "Cylinder.274",
            "primitives" : [
                {
                    "attributes" : {
                        "POSITION" : 4,
                        "NORMAL" : 5,
                        "TEXCOORD_0" : 6
                    },
                    "indices" : 7,
                    "material" : 1
                }
            ]
        }
    ],
    "accessors" : [
        {
            "bufferView" : 0,
            "componentType" : 5126,
            "count" : 1320,
            "max" : [
                0.21668969094753265,
                0.2840411365032196,
                0.1424885094165802
            ],
            "min" : [
                -0.21668969094753265,
                -0.24355573952198029,
                -0.1424885094165802
            ],
            "type" : "VEC3"
        },
        {
            "bufferView" : 1,
            "componentType" : 5126,
            "count" : 1320,
            "type" : "VEC3"
        },
        {
            "bufferView" : 2,
            "componentType" : 5126,
            "count" : 1320,
            "type" : "VEC2"
        },
        {
            "bufferView" : 3,
            "componentType" : 5123,
            "count" : 7188,
            "type" : "SCALAR"
        },
        {
            "bufferView" : 4,
            "componentType" : 5126,
            "count" : 2322,
            "max" : [
                0.5653626322746277,
                0.22480106353759766,
                0.5653483867645264
            ],
            "min" : [
                -0.5653208494186401,
                -0.3413344621658325,
                -0.5653350353240967
            ],
            "type" : "VEC3"
        },
        {
            "bufferView" : 5,
            "componentType" : 5126,
            "count" : 2322,
            "type" : "VEC3"
        },
        {
            "bufferView" : 6,
            "componentType" : 5126,
            "count" : 2322,
            "type" : "VEC2"
        },
        {
            "bufferView" : 7,
            "componentType" : 5123,
            "count" : 5748,
            "type" : "SCALAR"
        }
    ],
    "bufferViews" : [
        {
            "buffer" : 0,
            "byteLength" : 15840,
            "byteOffset" : 0
        },
        {
            "buffer" : 0,
            "byteLength" : 15840,
            "byteOffset" : 15840
        },
        {
            "buffer" : 0,
            "byteLength" : 10560,
            "byteOffset" : 31680
        },
        {
            "buffer" : 0,
            "byteLength" : 14376,
            "byteOffset" : 42240
        },
        {
            "buffer" : 0,
            "byteLength" : 27864,
            "byteOffset" : 56616
        },
        {
            "buffer" : 0,
            "byteLength" : 27864,
            "byteOffset" : 84480
        },
        {
            "buffer" : 0,
            "byteLength" : 18576,
            "byteOffset" : 112344
        },
        {
            "buffer" : 0,
            "byteLength" : 11496,
            "byteOffset" : 130920
        }
    ],
    "buffers" : [
        {
            "byteLength" : 142416,
            "uri" : "data:application/octet-stream;base64,"
        }
    ]
}
