{
    "asset" : {
        "generator" : "Khronos glTF Blender I/O v1.4.40",
        "version" : "2.0"
    },
    "scene" : 0,
    "scenes" : [
        {
            "name" : "Scene",
            "nodes" : [
                0,
                1,
                2
            ]
        }
    ],
    "nodes" : [
        {
            "mesh" : 0,
            "name" : "Cylinder.079",
            "rotation" : [
                -0.33105653524398804,
                -0.19350966811180115,
                -0.6801132559776306,
                0.6248213052749634
            ],
            "translation" : [
                0.4522782862186432,
                -0.37414929270744324,
                -0.31510788202285767
            ]
        },
        {
            "mesh" : 1,
            "name" : "Cylinder.080",
            "rotation" : [
                0.5825578570365906,
                0.7166461944580078,
                -0.35557082295417786,
                0.1435757428407669
            ],
            "translation" : [
                0.4522782862186432,
                -0.374149352312088,
                -0.31510791182518005
            ]
        },
        {
            "mesh" : 2,
            "name" : "Cylinder.081",
            "rotation" : [
                0.3901842534542084,
                0.04112745076417923,
                -0.09641946107149124,
                0.9147503972053528
            ],
            "scale" : [
                1.5941983461380005,
                1.212538242340088,
                1.5941983461380005
            ],
            "translation" : [
                0.4514157474040985,
                -0.37694981694221497,
                -0.3180283308029175
            ]
        }
    ],
    "materials" : [
        {
            "doubleSided" : true,
            "name" : "Metall Texture.003",
            "pbrMetallicRoughness" : {
                "baseColorTexture" : {
                    "index" : 0,
                    "texCoord" : 0
                },
                "metallicRoughnessTexture" : {
                    "index" : 1,
                    "texCoord" : 0
                },
                "roughnessFactor" : 0.4000000059604645
            }
        },
        {
            "doubleSided" : true,
            "name" : "Metall Texture.004",
            "pbrMetallicRoughness" : {
                "baseColorTexture" : {
                    "index" : 2,
                    "texCoord" : 0
                },
                "metallicRoughnessTexture" : {
                    "index" : 3,
                    "texCoord" : 0
                },
                "roughnessFactor" : 0.6000000238418579
            }
        }
    ],
    "meshes" : [
        {
            "name" : "Cylinder.119",
            "primitives" : [
                {
                    "attributes" : {
                        "POSITION" : 0,
                        "NORMAL" : 1,
                        "TEXCOORD_0" : 2
                    },
                    "indices" : 3,
                    "material" : 0
                }
            ]
        },
        {
            "name" : "Cylinder.120",
            "primitives" : [
                {
                    "attributes" : {
                        "POSITION" : 4,
                        "NORMAL" : 5,
                        "TEXCOORD_0" : 6
                    },
                    "indices" : 7,
                    "material" : 0
                }
            ]
        },
        {
            "name" : "Cylinder.121",
            "primitives" : [
                {
                    "attributes" : {
                        "POSITION" : 8,
                        "NORMAL" : 9,
                        "TEXCOORD_0" : 10
                    },
                    "indices" : 11,
                    "material" : 1
                }
            ]
        }
    ],
    "textures" : [
        {
            "sampler" : 0,
            "source" : 0
        },
        {
            "sampler" : 0,
            "source" : 1
        },
        {
            "sampler" : 0,
            "source" : 2
        },
        {
            "sampler" : 0,
            "source" : 1
        }
    ],
    "images" : [
        {
            "bufferView" : 4,
            "mimeType" : "image/jpeg",
            "name" : "MetalStainlessSteelBrushedElongated005_COL_3K_METALNESS"
        },
        {
            "bufferView" : 5,
            "mimeType" : "image/png",
            "name" : "MetalStainlessSteelBrushedElongated005_METALNESS_3K_METALNESS"
        },
        {
            "bufferView" : 14,
            "mimeType" : "image/jpeg",
            "name" : "MetalStainlessSteelBrushedElongated005_COL_3K_METALNESS"
        }
    ],
    "accessors" : [
        {
            "bufferView" : 0,
            "componentType" : 5126,
            "count" : 4375,
            "max" : [
                0.06368624418973923,
                0.1864042729139328,
                0.0014748257817700505
            ],
            "min" : [
                -0.027420416474342346,
                -0.21090224385261536,
                -0.03020123392343521
            ],
            "type" : "VEC3"
        },
        {
            "bufferView" : 1,
            "componentType" : 5126,
            "count" : 4375,
            "type" : "VEC3"
        },
        {
            "bufferView" : 2,
            "componentType" : 5126,
            "count" : 4375,
            "type" : "VEC2"
        },
        {
            "bufferView" : 3,
            "componentType" : 5123,
            "count" : 18792,
            "type" : "SCALAR"
        },
        {
            "bufferView" : 6,
            "componentType" : 5126,
            "count" : 4354,
            "max" : [
                0.0634804293513298,
                0.18648883700370789,
                0.029734523966908455
            ],
            "min" : [
                -0.027626225724816322,
                -0.21065208315849304,
                -0.0014738037716597319
            ],
            "type" : "VEC3"
        },
        {
            "bufferView" : 7,
            "componentType" : 5126,
            "count" : 4354,
            "type" : "VEC3"
        },
        {
            "bufferView" : 8,
            "componentType" : 5126,
            "count" : 4354,
            "type" : "VEC2"
        },
        {
            "bufferView" : 9,
            "componentType" : 5123,
            "count" : 18792,
            "type" : "SCALAR"
        },
        {
            "bufferView" : 10,
            "componentType" : 5126,
            "count" : 130,
            "max" : [
                0.0020000000949949026,
                0.002500000176951289,
                0.0020000000949949026
            ],
            "min" : [
                -0.0020000000949949026,
                -0.002500000176951289,
                -0.0020000000949949026
            ],
            "type" : "VEC3"
        },
        {
            "bufferView" : 11,
            "componentType" : 5126,
            "count" : 130,
            "type" : "VEC3"
        },
        {
            "bufferView" : 12,
            "componentType" : 5126,
            "count" : 130,
            "type" : "VEC2"
        },
        {
            "bufferView" : 13,
            "componentType" : 5123,
            "count" : 372,
            "type" : "SCALAR"
        }
    ],
    "bufferViews" : [
        {
            "buffer" : 0,
            "byteLength" : 52500,
            "byteOffset" : 0
        },
        {
            "buffer" : 0,
            "byteLength" : 52500,
            "byteOffset" : 52500
        },
        {
            "buffer" : 0,
            "byteLength" : 35000,
            "byteOffset" : 105000
        },
        {
            "buffer" : 0,
            "byteLength" : 37584,
            "byteOffset" : 140000
        },
        {
            "buffer" : 0,
            "byteLength" : 637978,
            "byteOffset" : 177584
        },
        {
            "buffer" : 0,
            "byteLength" : 130985,
            "byteOffset" : 815564
        },
        {
            "buffer" : 0,
            "byteLength" : 52248,
            "byteOffset" : 946552
        },
        {
            "buffer" : 0,
            "byteLength" : 52248,
            "byteOffset" : 998800
        },
        {
            "buffer" : 0,
            "byteLength" : 34832,
            "byteOffset" : 1051048
        },
        {
            "buffer" : 0,
            "byteLength" : 37584,
            "byteOffset" : 1085880
        },
        {
            "buffer" : 0,
            "byteLength" : 1560,
            "byteOffset" : 1123464
        },
        {
            "buffer" : 0,
            "byteLength" : 1560,
            "byteOffset" : 1125024
        },
        {
            "buffer" : 0,
            "byteLength" : 1040,
            "byteOffset" : 1126584
        },
        {
            "buffer" : 0,
            "byteLength" : 744,
            "byteOffset" : 1127624
        },
        {
            "buffer" : 0,
            "byteLength" : 119048,
            "byteOffset" : 1128368
        }
    ],
    "samplers" : [
        {
            "magFilter" : 9729,
            "minFilter" : 9986
        }
    ],
    "buffers" : [
        {
            "byteLength" : 1247416,
            "uri" : "data:application/octet-stream;base64,"
        }
    ]
}
