{
    "asset" : {
        "generator" : "Khronos glTF Blender I/O v1.4.40",
        "version" : "2.0"
    },
    "extensionsUsed" : [
        "KHR_materials_transmission"
    ],
    "scene" : 0,
    "scenes" : [
        {
            "extras" : {
                "glTF2ExportSettings" : {
                    "export_apply" : 1,
                    "export_extras" : 1,
                    "export_format" : "GLTF_EMBEDDED",
                    "use_selection" : 1
                }
            },
            "name" : "Scene",
            "nodes" : [
                0
            ]
        }
    ],
    "nodes" : [
        {
            "mesh" : 0,
            "name" : "Erlenmeyerkolben.100ml",
            "scale" : [
                0.02402501553297043,
                0.025698021054267883,
                0.02402501367032528
            ],
            "translation" : [
                0.24626126885414124,
                0.0688408762216568,
                0
            ]
        }
    ],
    "materials" : [
        {
            "alphaMode" : "BLEND",
            "doubleSided" : true,
            "extensions" : {
                "KHR_materials_transmission" : {
                    "transmissionFactor" : 1
                }
            },
            "name" : "Material.001",
            "pbrMetallicRoughness" : {
                "baseColorFactor" : [
                    1,
                    1,
                    1,
                    0.20000000298023224
                ],
                "metallicFactor" : 0,
                "roughnessFactor" : 0.10000000149011612
            }
        }
    ],
    "meshes" : [
        {
            "name" : "Cylinder.033",
            "primitives" : [
                {
                    "attributes" : {
                        "POSITION" : 0,
                        "NORMAL" : 1,
                        "TEXCOORD_0" : 2
                    },
                    "indices" : 3,
                    "material" : 0
                }
            ]
        }
    ],
    "accessors" : [
        {
            "bufferView" : 0,
            "componentType" : 5126,
            "count" : 1450,
            "max" : [
                1.3318949937820435,
                2.0644421577453613,
                1.3318955898284912
            ],
            "min" : [
                -1.3318952322006226,
                -2.021378517150879,
                -1.3318949937820435
            ],
            "type" : "VEC3"
        },
        {
            "bufferView" : 1,
            "componentType" : 5126,
            "count" : 1450,
            "type" : "VEC3"
        },
        {
            "bufferView" : 2,
            "componentType" : 5126,
            "count" : 1450,
            "type" : "VEC2"
        },
        {
            "bufferView" : 3,
            "componentType" : 5123,
            "count" : 6708,
            "type" : "SCALAR"
        }
    ],
    "bufferViews" : [
        {
            "buffer" : 0,
            "byteLength" : 17400,
            "byteOffset" : 0
        },
        {
            "buffer" : 0,
            "byteLength" : 17400,
            "byteOffset" : 17400
        },
        {
            "buffer" : 0,
            "byteLength" : 11600,
            "byteOffset" : 34800
        },
        {
            "buffer" : 0,
            "byteLength" : 13416,
            "byteOffset" : 46400
        }
    ],
    "buffers" : [
        {
            "byteLength" : 59816,
            "uri" : "data:application/octet-stream;base64,"
        }
    ]
}
