{
    "asset" : {
        "generator" : "Khronos glTF Blender I/O v1.4.40",
        "version" : "2.0"
    },
    "extensionsUsed" : [
        "KHR_materials_transmission"
    ],
    "scene" : 0,
    "scenes" : [
        {
            "name" : "Scene",
            "nodes" : [
                0
            ]
        }
    ],
    "nodes" : [
        {
            "mesh" : 0,
            "name" : "Uhrglas",
            "translation" : [
                0.5316141247749329,
                -0.8824753761291504,
                -0.31885555386543274
            ]
        }
    ],
    "materials" : [
        {
            "doubleSided" : true,
            "extensions" : {
                "KHR_materials_transmission" : {
                    "transmissionFactor" : 1
                }
            },
            "name" : "Material.001",
            "pbrMetallicRoughness" : {
                "metallicFactor" : 0,
                "roughnessFactor" : 0.10000000149011612
            }
        }
    ],
    "meshes" : [
        {
            "name" : "Circle.023",
            "primitives" : [
                {
                    "attributes" : {
                        "POSITION" : 0,
                        "NORMAL" : 1,
                        "TEXCOORD_0" : 2
                    },
                    "indices" : 3,
                    "material" : 0
                }
            ]
        }
    ],
    "accessors" : [
        {
            "bufferView" : 0,
            "componentType" : 5126,
            "count" : 448,
            "max" : [
                0.050142522901296616,
                -0.001674841856583953,
                0.050142522901296616
            ],
            "min" : [
                -0.050142522901296616,
                -0.008862814866006374,
                -0.050142522901296616
            ],
            "type" : "VEC3"
        },
        {
            "bufferView" : 1,
            "componentType" : 5126,
            "count" : 448,
            "type" : "VEC3"
        },
        {
            "bufferView" : 2,
            "componentType" : 5126,
            "count" : 448,
            "type" : "VEC2"
        },
        {
            "bufferView" : 3,
            "componentType" : 5123,
            "count" : 2292,
            "type" : "SCALAR"
        }
    ],
    "bufferViews" : [
        {
            "buffer" : 0,
            "byteLength" : 5376,
            "byteOffset" : 0
        },
        {
            "buffer" : 0,
            "byteLength" : 5376,
            "byteOffset" : 5376
        },
        {
            "buffer" : 0,
            "byteLength" : 3584,
            "byteOffset" : 10752
        },
        {
            "buffer" : 0,
            "byteLength" : 4584,
            "byteOffset" : 14336
        }
    ],
    "buffers" : [
        {
            "byteLength" : 18920,
            "uri" : "data:application/octet-stream;base64,"
        }
    ]
}
