{
    "asset" : {
        "generator" : "Khronos glTF Blender I/O v1.4.40",
        "version" : "2.0"
    },
    "extensionsUsed" : [
        "KHR_texture_transform"
    ],
    "extensionsRequired" : [
        "KHR_texture_transform"
    ],
    "scene" : 0,
    "scenes" : [
        {
            "extras" : {
                "glTF2ExportSettings" : {
                    "export_apply" : 1,
                    "export_extras" : 1,
                    "export_format" : "GLTF_EMBEDDED",
                    "use_selection" : 1
                }
            },
            "name" : "Scene",
            "nodes" : [
                0,
                1,
                2,
                4
            ]
        }
    ],
    "nodes" : [
        {
            "mesh" : 0,
            "name" : "NaOH-Etikett",
            "rotation" : [
                0.7071068286895752,
                0,
                0,
                0.7071068286895752
            ],
            "scale" : [
                0.12968720495700836,
                0.12968720495700836,
                0.12968720495700836
            ],
            "translation" : [
                1.687079668045044,
                1.672607421875,
                -0.2779431641101837
            ]
        },
        {
            "mesh" : 1,
            "name" : "Cylinder.237",
            "scale" : [
                0.06810340285301208,
                0.020477216690778732,
                0.06810340285301208
            ],
            "translation" : [
                1.6870460510253906,
                1.855033040046692,
                -0.3878505527973175
            ]
        },
        {
            "mesh" : 2,
            "name" : "Plane.068",
            "scale" : [
                0.10930543392896652,
                0.10930543392896652,
                0.10930543392896652
            ],
            "translation" : [
                1.6870460510253906,
                1.4699405431747437,
                -0.3878505527973175
            ]
        },
        {
            "mesh" : 3,
            "name" : "Material_doof.005",
            "translation" : [
                0,
                -0.5071640014648438,
                0
            ]
        },
        {
            "children" : [
                3
            ],
            "mesh" : 4,
            "name" : "Material_doof.004",
            "scale" : [
                0.08124753087759018,
                0.04947148635983467,
                0.08124753087759018
            ],
            "translation" : [
                1.6870460510253906,
                1.9049869775772095,
                -0.3878505527973175
            ]
        }
    ],
    "materials" : [
        {
            "alphaMode" : "BLEND",
            "doubleSided" : true,
            "name" : "NaOH-Etikett",
            "pbrMetallicRoughness" : {
                "baseColorTexture" : {
                    "index" : 0,
                    "texCoord" : 0
                },
                "metallicFactor" : 0,
                "roughnessFactor" : 0.5
            }
        },
        {
            "doubleSided" : true,
            "name" : "Plastik.007",
            "pbrMetallicRoughness" : {
                "baseColorTexture" : {
                    "extensions" : {
                        "KHR_texture_transform" : {
                            "offset" : [
                                0,
                                -74
                            ],
                            "scale" : [
                                75,
                                75
                            ]
                        }
                    },
                    "index" : 1,
                    "texCoord" : 0
                },
                "metallicFactor" : 0,
                "roughnessFactor" : 0.8500000238418579
            }
        },
        {
            "doubleSided" : true,
            "name" : "Plastik.009",
            "pbrMetallicRoughness" : {
                "baseColorFactor" : [
                    0.8000000715255737,
                    0.1975162923336029,
                    0,
                    1
                ],
                "metallicFactor" : 0,
                "roughnessFactor" : 0.8500000238418579
            }
        }
    ],
    "meshes" : [
        {
            "name" : "NaOH-Etikett",
            "primitives" : [
                {
                    "attributes" : {
                        "POSITION" : 0,
                        "NORMAL" : 1,
                        "TEXCOORD_0" : 2
                    },
                    "indices" : 3,
                    "material" : 0
                }
            ]
        },
        {
            "name" : "Cylinder.280",
            "primitives" : [
                {
                    "attributes" : {
                        "POSITION" : 4,
                        "NORMAL" : 5,
                        "TEXCOORD_0" : 6
                    },
                    "indices" : 7,
                    "material" : 1
                }
            ]
        },
        {
            "name" : "Plane.074",
            "primitives" : [
                {
                    "attributes" : {
                        "POSITION" : 8,
                        "NORMAL" : 9,
                        "TEXCOORD_0" : 10
                    },
                    "indices" : 11,
                    "material" : 1
                }
            ]
        },
        {
            "name" : "Cylinder.282",
            "primitives" : [
                {
                    "attributes" : {
                        "POSITION" : 12,
                        "NORMAL" : 13,
                        "TEXCOORD_0" : 14
                    },
                    "indices" : 15,
                    "material" : 1
                }
            ]
        },
        {
            "name" : "Cylinder.281",
            "primitives" : [
                {
                    "attributes" : {
                        "POSITION" : 16,
                        "NORMAL" : 17,
                        "TEXCOORD_0" : 18
                    },
                    "indices" : 19,
                    "material" : 2
                }
            ]
        }
    ],
    "textures" : [
        {
            "sampler" : 0,
            "source" : 0
        },
        {
            "sampler" : 0,
            "source" : 1
        }
    ],
    "images" : [
        {
            "bufferView" : 4,
            "mimeType" : "image/png",
            "name" : "NaOH-Etikett"
        },
        {
            "bufferView" : 9,
            "mimeType" : "image/jpeg",
            "name" : "TerrazzoVenetianMatteWhite001_COL_3K_weiss"
        }
    ],
    "accessors" : [
        {
            "bufferView" : 0,
            "componentType" : 5126,
            "count" : 4,
            "max" : [
                0.7504504323005676,
                0,
                0.5
            ],
            "min" : [
                -0.7504504323005676,
                0,
                -0.5
            ],
            "type" : "VEC3"
        },
        {
            "bufferView" : 1,
            "componentType" : 5126,
            "count" : 4,
            "type" : "VEC3"
        },
        {
            "bufferView" : 2,
            "componentType" : 5126,
            "count" : 4,
            "type" : "VEC2"
        },
        {
            "bufferView" : 3,
            "componentType" : 5123,
            "count" : 6,
            "type" : "SCALAR"
        },
        {
            "bufferView" : 5,
            "componentType" : 5126,
            "count" : 132,
            "max" : [
                1,
                2.9482133388519287,
                1
            ],
            "min" : [
                -1,
                -1,
                -1
            ],
            "type" : "VEC3"
        },
        {
            "bufferView" : 6,
            "componentType" : 5126,
            "count" : 132,
            "type" : "VEC3"
        },
        {
            "bufferView" : 7,
            "componentType" : 5126,
            "count" : 132,
            "type" : "VEC2"
        },
        {
            "bufferView" : 8,
            "componentType" : 5123,
            "count" : 768,
            "type" : "SCALAR"
        },
        {
            "bufferView" : 10,
            "componentType" : 5126,
            "count" : 384,
            "max" : [
                1.0023096799850464,
                3.4023640155792236,
                1.0023096799850464
            ],
            "min" : [
                -1.0023096799850464,
                -0.23493199050426483,
                -1.0023096799850464
            ],
            "type" : "VEC3"
        },
        {
            "bufferView" : 11,
            "componentType" : 5126,
            "count" : 384,
            "type" : "VEC3"
        },
        {
            "bufferView" : 12,
            "componentType" : 5126,
            "count" : 384,
            "type" : "VEC2"
        },
        {
            "bufferView" : 13,
            "componentType" : 5123,
            "count" : 2292,
            "type" : "SCALAR"
        },
        {
            "bufferView" : 14,
            "componentType" : 5126,
            "count" : 256,
            "max" : [
                0.8452911972999573,
                0.7465134859085083,
                0.8452911972999573
            ],
            "min" : [
                -0.8452911972999573,
                0.6498663425445557,
                -0.8452911972999573
            ],
            "type" : "VEC3"
        },
        {
            "bufferView" : 15,
            "componentType" : 5126,
            "count" : 256,
            "type" : "VEC3"
        },
        {
            "bufferView" : 16,
            "componentType" : 5126,
            "count" : 256,
            "type" : "VEC2"
        },
        {
            "bufferView" : 17,
            "componentType" : 5123,
            "count" : 1524,
            "type" : "SCALAR"
        },
        {
            "bufferView" : 18,
            "componentType" : 5126,
            "count" : 676,
            "max" : [
                1.0607030391693115,
                0.8748531341552734,
                1.0520437955856323
            ],
            "min" : [
                -1.062256932258606,
                -1.002201795578003,
                -1.0607037544250488
            ],
            "type" : "VEC3"
        },
        {
            "bufferView" : 19,
            "componentType" : 5126,
            "count" : 676,
            "type" : "VEC3"
        },
        {
            "bufferView" : 20,
            "componentType" : 5126,
            "count" : 676,
            "type" : "VEC2"
        },
        {
            "bufferView" : 21,
            "componentType" : 5123,
            "count" : 2676,
            "type" : "SCALAR"
        }
    ],
    "bufferViews" : [
        {
            "buffer" : 0,
            "byteLength" : 48,
            "byteOffset" : 0
        },
        {
            "buffer" : 0,
            "byteLength" : 48,
            "byteOffset" : 48
        },
        {
            "buffer" : 0,
            "byteLength" : 32,
            "byteOffset" : 96
        },
        {
            "buffer" : 0,
            "byteLength" : 12,
            "byteOffset" : 128
        },
        {
            "buffer" : 0,
            "byteLength" : 119887,
            "byteOffset" : 140
        },
        {
            "buffer" : 0,
            "byteLength" : 1584,
            "byteOffset" : 120028
        },
        {
            "buffer" : 0,
            "byteLength" : 1584,
            "byteOffset" : 121612
        },
        {
            "buffer" : 0,
            "byteLength" : 1056,
            "byteOffset" : 123196
        },
        {
            "buffer" : 0,
            "byteLength" : 1536,
            "byteOffset" : 124252
        },
        {
            "buffer" : 0,
            "byteLength" : 1028392,
            "byteOffset" : 125788
        },
        {
            "buffer" : 0,
            "byteLength" : 4608,
            "byteOffset" : 1154180
        },
        {
            "buffer" : 0,
            "byteLength" : 4608,
            "byteOffset" : 1158788
        },
        {
            "buffer" : 0,
            "byteLength" : 3072,
            "byteOffset" : 1163396
        },
        {
            "buffer" : 0,
            "byteLength" : 4584,
            "byteOffset" : 1166468
        },
        {
            "buffer" : 0,
            "byteLength" : 3072,
            "byteOffset" : 1171052
        },
        {
            "buffer" : 0,
            "byteLength" : 3072,
            "byteOffset" : 1174124
        },
        {
            "buffer" : 0,
            "byteLength" : 2048,
            "byteOffset" : 1177196
        },
        {
            "buffer" : 0,
            "byteLength" : 3048,
            "byteOffset" : 1179244
        },
        {
            "buffer" : 0,
            "byteLength" : 8112,
            "byteOffset" : 1182292
        },
        {
            "buffer" : 0,
            "byteLength" : 8112,
            "byteOffset" : 1190404
        },
        {
            "buffer" : 0,
            "byteLength" : 5408,
            "byteOffset" : 1198516
        },
        {
            "buffer" : 0,
            "byteLength" : 5352,
            "byteOffset" : 1203924
        }
    ],
    "samplers" : [
        {
            "magFilter" : 9729,
            "minFilter" : 9986
        }
    ],
    "buffers" : [
        {
            "byteLength" : 1209276,
            "uri" : "data:application/octet-stream;base64,"
        }
    ]
}
