{
    "asset" : {
        "generator" : "Khronos glTF Blender I/O v1.4.40",
        "version" : "2.0"
    },
    "extensionsUsed" : [
        "KHR_materials_transmission"
    ],
    "scene" : 0,
    "scenes" : [
        {
            "extras" : {
                "glTF2ExportSettings" : {
                    "export_apply" : 1,
                    "export_extras" : 1,
                    "export_format" : "GLTF_EMBEDDED",
                    "use_selection" : 1
                }
            },
            "name" : "Scene",
            "nodes" : [
                0,
                1
            ]
        }
    ],
    "nodes" : [
        {
            "mesh" : 0,
            "name" : "Cylinder.240",
            "scale" : [
                0.004555922467261553,
                0.11360997706651688,
                0.004555922467261553
            ],
            "translation" : [
                0.22319400310516357,
                0.05504770576953888,
                -0.29477500915527344
            ]
        },
        {
            "mesh" : 1,
            "name" : "Torus.008",
            "scale" : [
                0.006068811751902103,
                0.011101575568318367,
                0.006068811751902103
            ],
            "translation" : [
                0.22319400310516357,
                0.12332761287689209,
                -0.2947753667831421
            ]
        }
    ],
    "materials" : [
        {
            "alphaMode" : "BLEND",
            "doubleSided" : true,
            "extensions" : {
                "KHR_materials_transmission" : {
                    "transmissionFactor" : 1
                }
            },
            "name" : "Material.001",
            "pbrMetallicRoughness" : {
                "baseColorFactor" : [
                    1,
                    1,
                    1,
                    0.20000000298023224
                ],
                "metallicFactor" : 0,
                "roughnessFactor" : 0.10000000149011612
            }
        },
        {
            "alphaMode" : "BLEND",
            "doubleSided" : true,
            "extensions" : {
                "KHR_materials_transmission" : {
                    "transmissionFactor" : 0.949999988079071
                }
            },
            "name" : "Material.058",
            "pbrMetallicRoughness" : {
                "baseColorFactor" : [
                    0.4672020375728607,
                    0.23380838334560394,
                    0.0015732429455965757,
                    0.5
                ],
                "metallicFactor" : 0,
                "roughnessFactor" : 0.4000000059604645
            }
        }
    ],
    "meshes" : [
        {
            "name" : "Cylinder.289",
            "primitives" : [
                {
                    "attributes" : {
                        "POSITION" : 0,
                        "NORMAL" : 1,
                        "TEXCOORD_0" : 2
                    },
                    "indices" : 3,
                    "material" : 0
                }
            ]
        },
        {
            "name" : "Torus.008",
            "primitives" : [
                {
                    "attributes" : {
                        "POSITION" : 4,
                        "NORMAL" : 5,
                        "TEXCOORD_0" : 6
                    },
                    "indices" : 7,
                    "material" : 1
                }
            ]
        }
    ],
    "accessors" : [
        {
            "bufferView" : 0,
            "componentType" : 5126,
            "count" : 990,
            "max" : [
                1,
                0.7544327974319458,
                1
            ],
            "min" : [
                -1.000001072883606,
                -1.3502087593078613,
                -1
            ],
            "type" : "VEC3"
        },
        {
            "bufferView" : 1,
            "componentType" : 5126,
            "count" : 990,
            "type" : "VEC3"
        },
        {
            "bufferView" : 2,
            "componentType" : 5126,
            "count" : 990,
            "type" : "VEC2"
        },
        {
            "bufferView" : 3,
            "componentType" : 5123,
            "count" : 5760,
            "type" : "SCALAR"
        },
        {
            "bufferView" : 4,
            "componentType" : 5126,
            "count" : 2058,
            "max" : [
                1.3116238117218018,
                3.877594470977783,
                1.3116278648376465
            ],
            "min" : [
                -1.3116235733032227,
                -0.25,
                -1.311619520187378
            ],
            "type" : "VEC3"
        },
        {
            "bufferView" : 5,
            "componentType" : 5126,
            "count" : 2058,
            "type" : "VEC3"
        },
        {
            "bufferView" : 6,
            "componentType" : 5126,
            "count" : 2058,
            "type" : "VEC2"
        },
        {
            "bufferView" : 7,
            "componentType" : 5123,
            "count" : 11796,
            "type" : "SCALAR"
        }
    ],
    "bufferViews" : [
        {
            "buffer" : 0,
            "byteLength" : 11880,
            "byteOffset" : 0
        },
        {
            "buffer" : 0,
            "byteLength" : 11880,
            "byteOffset" : 11880
        },
        {
            "buffer" : 0,
            "byteLength" : 7920,
            "byteOffset" : 23760
        },
        {
            "buffer" : 0,
            "byteLength" : 11520,
            "byteOffset" : 31680
        },
        {
            "buffer" : 0,
            "byteLength" : 24696,
            "byteOffset" : 43200
        },
        {
            "buffer" : 0,
            "byteLength" : 24696,
            "byteOffset" : 67896
        },
        {
            "buffer" : 0,
            "byteLength" : 16464,
            "byteOffset" : 92592
        },
        {
            "buffer" : 0,
            "byteLength" : 23592,
            "byteOffset" : 109056
        }
    ],
    "buffers" : [
        {
            "byteLength" : 132648,
            "uri" : "data:application/octet-stream;base64,"
        }
    ]
}
