{
    "asset" : {
        "generator" : "Khronos glTF Blender I/O v3.2.40",
        "version" : "2.0"
    },
    "scene" : 0,
    "scenes" : [
        {
            "name" : "Scene",
            "nodes" : [
                0,
                1,
                2
            ]
        }
    ],
    "nodes" : [
        {
            "mesh" : 0,
            "name" : "Cylinder.240",
            "scale" : [
                0.004555922467261553,
                0.11360997706651688,
                0.004555922467261553
            ],
            "translation" : [
                0.22319400310516357,
                0.05504770576953888,
                -0.29477500915527344
            ]
        },
        {
            "mesh" : 1,
            "name" : "Torus.008",
            "scale" : [
                0.006068811751902103,
                0.011101575568318367,
                0.006068811751902103
            ],
            "translation" : [
                0.22319400310516357,
                0.12332761287689209,
                -0.2947753667831421
            ]
        },
        {
            "mesh" : 2,
            "name" : "WaterLevel",
            "scale" : [
                0.0035000001080334187,
                0.11100000143051147,
                0.0035000001080334187
            ],
            "translation" : [
                0.22319400310516357,
                0.05504770576953888,
                -0.29477500915527344
            ]
        }
    ],
    "materials" : [
        {
            "alphaMode" : "BLEND",
            "doubleSided" : true,
            "name" : "Material.002",
            "pbrMetallicRoughness" : {
                "baseColorFactor" : [
                    1,
                    1,
                    1,
                    0.20000000298023224
                ],
                "metallicFactor" : 0,
                "roughnessFactor" : 0.10000000149011612
            }
        },
        {
            "alphaMode" : "BLEND",
            "doubleSided" : true,
            "name" : "Material.058",
            "pbrMetallicRoughness" : {
                "baseColorFactor" : [
                    0.4672020375728607,
                    0.23380838334560394,
                    0.0015732429455965757,
                    0.5
                ],
                "metallicFactor" : 0,
                "roughnessFactor" : 0.4000000059604645
            }
        }
    ],
    "meshes" : [
        {
            "name" : "Cylinder.289",
            "primitives" : [
                {
                    "attributes" : {
                        "POSITION" : 0,
                        "NORMAL" : 1,
                        "TEXCOORD_0" : 2
                    },
                    "indices" : 3,
                    "material" : 0
                }
            ]
        },
        {
            "name" : "Torus.008",
            "primitives" : [
                {
                    "attributes" : {
                        "POSITION" : 4,
                        "NORMAL" : 5,
                        "TEXCOORD_0" : 6
                    },
                    "indices" : 7,
                    "material" : 1
                }
            ]
        },
        {
            "name" : "Cylinder.003",
            "primitives" : [
                {
                    "attributes" : {
                        "POSITION" : 8,
                        "NORMAL" : 9,
                        "TEXCOORD_0" : 10
                    },
                    "indices" : 11,
                    "material" : 0
                }
            ]
        }
    ],
    "accessors" : [
        {
            "bufferView" : 0,
            "componentType" : 5126,
            "count" : 990,
            "max" : [
                1,
                0.7544327974319458,
                1
            ],
            "min" : [
                -1.000001072883606,
                -1.3502087593078613,
                -1
            ],
            "type" : "VEC3"
        },
        {
            "bufferView" : 1,
            "componentType" : 5126,
            "count" : 990,
            "type" : "VEC3"
        },
        {
            "bufferView" : 2,
            "componentType" : 5126,
            "count" : 990,
            "type" : "VEC2"
        },
        {
            "bufferView" : 3,
            "componentType" : 5123,
            "count" : 5760,
            "type" : "SCALAR"
        },
        {
            "bufferView" : 4,
            "componentType" : 5126,
            "count" : 2254,
            "max" : [
                1.3116238117218018,
                3.877594470977783,
                1.3116278648376465
            ],
            "min" : [
                -1.3116235733032227,
                -0.25,
                -1.311619520187378
            ],
            "type" : "VEC3"
        },
        {
            "bufferView" : 5,
            "componentType" : 5126,
            "count" : 2254,
            "type" : "VEC3"
        },
        {
            "bufferView" : 6,
            "componentType" : 5126,
            "count" : 2254,
            "type" : "VEC2"
        },
        {
            "bufferView" : 7,
            "componentType" : 5123,
            "count" : 11796,
            "type" : "SCALAR"
        },
        {
            "bufferView" : 8,
            "componentType" : 5126,
            "count" : 601,
            "max" : [
                1,
                0.43340715765953064,
                1
            ],
            "min" : [
                -1,
                -1.3502087593078613,
                -1
            ],
            "type" : "VEC3"
        },
        {
            "bufferView" : 9,
            "componentType" : 5126,
            "count" : 601,
            "type" : "VEC3"
        },
        {
            "bufferView" : 10,
            "componentType" : 5126,
            "count" : 601,
            "type" : "VEC2"
        },
        {
            "bufferView" : 11,
            "componentType" : 5123,
            "count" : 3306,
            "type" : "SCALAR"
        }
    ],
    "bufferViews" : [
        {
            "buffer" : 0,
            "byteLength" : 11880,
            "byteOffset" : 0
        },
        {
            "buffer" : 0,
            "byteLength" : 11880,
            "byteOffset" : 11880
        },
        {
            "buffer" : 0,
            "byteLength" : 7920,
            "byteOffset" : 23760
        },
        {
            "buffer" : 0,
            "byteLength" : 11520,
            "byteOffset" : 31680
        },
        {
            "buffer" : 0,
            "byteLength" : 27048,
            "byteOffset" : 43200
        },
        {
            "buffer" : 0,
            "byteLength" : 27048,
            "byteOffset" : 70248
        },
        {
            "buffer" : 0,
            "byteLength" : 18032,
            "byteOffset" : 97296
        },
        {
            "buffer" : 0,
            "byteLength" : 23592,
            "byteOffset" : 115328
        },
        {
            "buffer" : 0,
            "byteLength" : 7212,
            "byteOffset" : 138920
        },
        {
            "buffer" : 0,
            "byteLength" : 7212,
            "byteOffset" : 146132
        },
        {
            "buffer" : 0,
            "byteLength" : 4808,
            "byteOffset" : 153344
        },
        {
            "buffer" : 0,
            "byteLength" : 6612,
            "byteOffset" : 158152
        }
    ],
    "buffers" : [
        {
            "byteLength" : 164764,
            "uri" : "data:application/octet-stream;base64,"
        }
    ]
}
