{
    "asset" : {
        "generator" : "Khronos glTF Blender I/O v1.8.19",
        "version" : "2.0"
    },
    "scene" : 0,
    "scenes" : [
        {
            "name" : "Scene",
            "nodes" : [
                0,
                1
            ]
        }
    ],
    "nodes" : [
        {
            "mesh" : 0,
            "name" : "WaterLevel",
            "scale" : [
                0.17000000178813934,
                0.17000000178813934,
                0.17000000178813934
            ]
        },
        {
            "mesh" : 1,
            "name" : "Cylinder.013",
            "scale" : [
                0.18276719748973846,
                0.18276719748973846,
                0.18276719748973846
            ]
        }
    ],
    "materials" : [
        {
            "doubleSided" : true,
            "name" : "Material.031",
            "pbrMetallicRoughness" : {
                "metallicFactor" : 0,
                "roughnessFactor" : 0.4000000059604645
            }
        },
        {
            "doubleSided" : true,
            "name" : "Material.001",
            "pbrMetallicRoughness" : {
                "metallicFactor" : 0,
                "roughnessFactor" : 0.4000000059604645
            }
        }
    ],
    "meshes" : [
        {
            "name" : "Cylinder.021",
            "primitives" : [
                {
                    "attributes" : {
                        "POSITION" : 0,
                        "NORMAL" : 1,
                        "TEXCOORD_0" : 2
                    },
                    "indices" : 3,
                    "material" : 0
                }
            ]
        },
        {
            "name" : "Cylinder.001",
            "primitives" : [
                {
                    "attributes" : {
                        "POSITION" : 4,
                        "NORMAL" : 5,
                        "TEXCOORD_0" : 6
                    },
                    "indices" : 7,
                    "material" : 1
                }
            ]
        }
    ],
    "accessors" : [
        {
            "bufferView" : 0,
            "componentType" : 5126,
            "count" : 1560,
            "max" : [
                0.25612062215805054,
                0.22655166685581207,
                0.3096931278705597
            ],
            "min" : [
                -0.35950130224227905,
                -0.5627622008323669,
                -0.3059466481208801
            ],
            "type" : "VEC3"
        },
        {
            "bufferView" : 1,
            "componentType" : 5126,
            "count" : 1560,
            "type" : "VEC3"
        },
        {
            "bufferView" : 2,
            "componentType" : 5126,
            "count" : 1560,
            "type" : "VEC2"
        },
        {
            "bufferView" : 3,
            "componentType" : 5123,
            "count" : 6528,
            "type" : "SCALAR"
        },
        {
            "bufferView" : 4,
            "componentType" : 5126,
            "count" : 3554,
            "max" : [
                0.391486257314682,
                0.2399432361125946,
                0.32818180322647095
            ],
            "min" : [
                -0.37798988819122314,
                -0.5627615451812744,
                -0.3244352638721466
            ],
            "type" : "VEC3"
        },
        {
            "bufferView" : 5,
            "componentType" : 5126,
            "count" : 3554,
            "type" : "VEC3"
        },
        {
            "bufferView" : 6,
            "componentType" : 5126,
            "count" : 3554,
            "type" : "VEC2"
        },
        {
            "bufferView" : 7,
            "componentType" : 5123,
            "count" : 14520,
            "type" : "SCALAR"
        }
    ],
    "bufferViews" : [
        {
            "buffer" : 0,
            "byteLength" : 18720,
            "byteOffset" : 0
        },
        {
            "buffer" : 0,
            "byteLength" : 18720,
            "byteOffset" : 18720
        },
        {
            "buffer" : 0,
            "byteLength" : 12480,
            "byteOffset" : 37440
        },
        {
            "buffer" : 0,
            "byteLength" : 13056,
            "byteOffset" : 49920
        },
        {
            "buffer" : 0,
            "byteLength" : 42648,
            "byteOffset" : 62976
        },
        {
            "buffer" : 0,
            "byteLength" : 42648,
            "byteOffset" : 105624
        },
        {
            "buffer" : 0,
            "byteLength" : 28432,
            "byteOffset" : 148272
        },
        {
            "buffer" : 0,
            "byteLength" : 29040,
            "byteOffset" : 176704
        }
    ],
    "buffers" : [
        {
            "byteLength" : 205744,
            "uri" : "data:application/octet-stream;base64,"
        }
    ]
}
