{
    "asset" : {
        "generator" : "Khronos glTF Blender I/O v1.4.40",
        "version" : "2.0"
    },
    "extensionsUsed" : [
        "KHR_materials_transmission"
    ],
    "scene" : 0,
    "scenes" : [
        {
            "name" : "Scene",
            "nodes" : [
                0
            ]
        }
    ],
    "nodes" : [
        {
            "mesh" : 0,
            "name" : "Cylinder.013",
            "scale" : [
                0.18276719748973846,
                0.18276719748973846,
                0.18276719748973846
            ],
            "translation" : [
                0.4431755244731903,
                -0.024286428466439247,
                0.0032979962415993214
            ]
        }
    ],
    "materials" : [
        {
            "doubleSided" : true,
            "extensions" : {
                "KHR_materials_transmission" : {
                    "transmissionFactor" : 0.800000011920929
                }
            },
            "name" : "Material.031",
            "pbrMetallicRoughness" : {
                "metallicFactor" : 0,
                "roughnessFactor" : 0.4000000059604645
            }
        }
    ],
    "meshes" : [
        {
            "name" : "Cylinder.021",
            "primitives" : [
                {
                    "attributes" : {
                        "POSITION" : 0,
                        "NORMAL" : 1,
                        "TEXCOORD_0" : 2
                    },
                    "indices" : 3,
                    "material" : 0
                }
            ]
        }
    ],
    "accessors" : [
        {
            "bufferView" : 0,
            "componentType" : 5126,
            "count" : 3430,
            "max" : [
                0.4431687593460083,
                0.5083930492401123,
                0.32630157470703125
            ],
            "min" : [
                -0.32630738615989685,
                -0.2943117618560791,
                -0.3263154923915863
            ],
            "type" : "VEC3"
        },
        {
            "bufferView" : 1,
            "componentType" : 5126,
            "count" : 3430,
            "type" : "VEC3"
        },
        {
            "bufferView" : 2,
            "componentType" : 5126,
            "count" : 3430,
            "type" : "VEC2"
        },
        {
            "bufferView" : 3,
            "componentType" : 5123,
            "count" : 14520,
            "type" : "SCALAR"
        }
    ],
    "bufferViews" : [
        {
            "buffer" : 0,
            "byteLength" : 41160,
            "byteOffset" : 0
        },
        {
            "buffer" : 0,
            "byteLength" : 41160,
            "byteOffset" : 41160
        },
        {
            "buffer" : 0,
            "byteLength" : 27440,
            "byteOffset" : 82320
        },
        {
            "buffer" : 0,
            "byteLength" : 29040,
            "byteOffset" : 109760
        }
    ],
    "buffers" : [
        {
            "byteLength" : 138800,
            "uri" : "data:application/octet-stream;base64,"
        }
    ]
}
