{
    "asset" : {
        "generator" : "Khronos glTF Blender I/O v3.2.43",
        "version" : "2.0"
    },
    "scene" : 0,
    "scenes" : [
        {
            "name" : "Scene",
            "nodes" : [
                0,
                1,
                2
            ]
        }
    ],
    "nodes" : [
        {
            "mesh" : 0,
            "name" : "Cylinder.019",
            "scale" : [
                0.07124588638544083,
                0.07124588638544083,
                0.07124588638544083
            ],
            "translation" : [
                -0.006930000148713589,
                0.09006000310182571,
                0.005779999773949385
            ]
        },
        {
            "mesh" : 1,
            "name" : "Cylinder.022",
            "scale" : [
                0.026832612231373787,
                0.026832612231373787,
                0.026832612231373787
            ],
            "translation" : [
                0.016585178673267365,
                0.26070013642311096,
                0.0066074165515601635
            ]
        },
        {
            "mesh" : 2,
            "name" : "WaterLevel",
            "scale" : [
                0.07000000029802322,
                0.07000000029802322,
                0.07000000029802322
            ],
            "translation" : [
                -0.006930000148713589,
                0.09006000310182571,
                0.005779999773949385
            ]
        }
    ],
    "materials" : [
        {
            "alphaMode" : "BLEND",
            "doubleSided" : true,
            "name" : "Plastik,durchsichtig",
            "pbrMetallicRoughness" : {
                "baseColorFactor" : [
                    1,
                    1,
                    1,
                    0.20000000298023224
                ],
                "metallicFactor" : 0,
                "roughnessFactor" : 0.4000000059604645
            }
        },
        {
            "doubleSided" : true,
            "name" : "Plastik,durchsichtig.001",
            "pbrMetallicRoughness" : {
                "metallicFactor" : 0,
                "roughnessFactor" : 0.4000000059604645
            }
        }
    ],
    "meshes" : [
        {
            "name" : "Cylinder.047",
            "primitives" : [
                {
                    "attributes" : {
                        "POSITION" : 0,
                        "NORMAL" : 1,
                        "TEXCOORD_0" : 2
                    },
                    "indices" : 3,
                    "material" : 0
                }
            ]
        },
        {
            "name" : "Cylinder.055",
            "primitives" : [
                {
                    "attributes" : {
                        "POSITION" : 4,
                        "NORMAL" : 5,
                        "TEXCOORD_0" : 6
                    },
                    "indices" : 7,
                    "material" : 1
                }
            ]
        },
        {
            "name" : "Cylinder.004",
            "primitives" : [
                {
                    "attributes" : {
                        "POSITION" : 8,
                        "NORMAL" : 9,
                        "TEXCOORD_0" : 10
                    },
                    "indices" : 3,
                    "material" : 0
                }
            ]
        }
    ],
    "accessors" : [
        {
            "bufferView" : 0,
            "componentType" : 5126,
            "count" : 986,
            "max" : [
                1.0004961490631104,
                1.6039725542068481,
                1.0166363716125488
            ],
            "min" : [
                -1.0004963874816895,
                -2.829690933227539,
                -0.9843561053276062
            ],
            "type" : "VEC3"
        },
        {
            "bufferView" : 1,
            "componentType" : 5126,
            "count" : 986,
            "type" : "VEC3"
        },
        {
            "bufferView" : 2,
            "componentType" : 5126,
            "count" : 986,
            "type" : "VEC2"
        },
        {
            "bufferView" : 3,
            "componentType" : 5123,
            "count" : 4968,
            "type" : "SCALAR"
        },
        {
            "bufferView" : 4,
            "componentType" : 5126,
            "count" : 2186,
            "max" : [
                4.485527992248535,
                4.137714385986328,
                1.1327884197235107
            ],
            "min" : [
                -1.9971035718917847,
                -12.230417251586914,
                -1.1138362884521484
            ],
            "type" : "VEC3"
        },
        {
            "bufferView" : 5,
            "componentType" : 5126,
            "count" : 2186,
            "type" : "VEC3"
        },
        {
            "bufferView" : 6,
            "componentType" : 5126,
            "count" : 2186,
            "type" : "VEC2"
        },
        {
            "bufferView" : 7,
            "componentType" : 5123,
            "count" : 11700,
            "type" : "SCALAR"
        },
        {
            "bufferView" : 8,
            "componentType" : 5126,
            "count" : 986,
            "max" : [
                1.0004961490631104,
                1.6039725542068481,
                1.0166363716125488
            ],
            "min" : [
                -1.0004963874816895,
                -2.829690933227539,
                -0.9843561053276062
            ],
            "type" : "VEC3"
        },
        {
            "bufferView" : 9,
            "componentType" : 5126,
            "count" : 986,
            "type" : "VEC3"
        },
        {
            "bufferView" : 10,
            "componentType" : 5126,
            "count" : 986,
            "type" : "VEC2"
        }
    ],
    "bufferViews" : [
        {
            "buffer" : 0,
            "byteLength" : 11832,
            "byteOffset" : 0
        },
        {
            "buffer" : 0,
            "byteLength" : 11832,
            "byteOffset" : 11832
        },
        {
            "buffer" : 0,
            "byteLength" : 7888,
            "byteOffset" : 23664
        },
        {
            "buffer" : 0,
            "byteLength" : 9936,
            "byteOffset" : 31552
        },
        {
            "buffer" : 0,
            "byteLength" : 26232,
            "byteOffset" : 41488
        },
        {
            "buffer" : 0,
            "byteLength" : 26232,
            "byteOffset" : 67720
        },
        {
            "buffer" : 0,
            "byteLength" : 17488,
            "byteOffset" : 93952
        },
        {
            "buffer" : 0,
            "byteLength" : 23400,
            "byteOffset" : 111440
        },
        {
            "buffer" : 0,
            "byteLength" : 11832,
            "byteOffset" : 134840
        },
        {
            "buffer" : 0,
            "byteLength" : 11832,
            "byteOffset" : 146672
        },
        {
            "buffer" : 0,
            "byteLength" : 7888,
            "byteOffset" : 158504
        }
    ],
    "buffers" : [
        {
            "byteLength" : 166392,
            "uri" : "data:application/octet-stream;base64,"
        }
    ]
}
