{
    "asset" : {
        "generator" : "Khronos glTF Blender I/O v1.4.40",
        "version" : "2.0"
    },
    "extensionsUsed" : [
        "KHR_materials_transmission"
    ],
    "scene" : 0,
    "scenes" : [
        {
            "extras" : {
                "glTF2ExportSettings" : {
                    "export_apply" : 1,
                    "export_extras" : 1,
                    "export_format" : "GLTF_EMBEDDED",
                    "use_selection" : 1
                }
            },
            "name" : "Scene",
            "nodes" : [
                0,
                1
            ]
        }
    ],
    "nodes" : [
        {
            "mesh" : 0,
            "name" : "Cylinder.019",
            "scale" : [
                0.07124588638544083,
                0.07124588638544083,
                0.07124588638544083
            ],
            "translation" : [
                -0.006930000148713589,
                -0.016323259100317955,
                0.006930000148713589
            ]
        },
        {
            "mesh" : 1,
            "name" : "Cylinder.022",
            "scale" : [
                0.026832612231373787,
                0.026832612231373787,
                0.026832612231373787
            ],
            "translation" : [
                -0.006930000148713589,
                0.22163400053977966,
                0.006930000148713589
            ]
        }
    ],
    "materials" : [
        {
            "alphaMode" : "BLEND",
            "doubleSided" : true,
            "name" : "Plastik,durchsichtig",
            "pbrMetallicRoughness" : {
                "baseColorFactor" : [
                    1,
                    1,
                    1,
                    0.20000000298023224
                ],
                "metallicFactor" : 0,
                "roughnessFactor" : 0.4000000059604645
            }
        },
        {
            "doubleSided" : true,
            "extensions" : {
                "KHR_materials_transmission" : {
                    "transmissionFactor" : 0.800000011920929
                }
            },
            "name" : "Plastik,durchsichtig.001",
            "pbrMetallicRoughness" : {
                "metallicFactor" : 0,
                "roughnessFactor" : 0.4000000059604645
            }
        }
    ],
    "meshes" : [
        {
            "name" : "Cylinder.047",
            "primitives" : [
                {
                    "attributes" : {
                        "POSITION" : 0,
                        "NORMAL" : 1,
                        "TEXCOORD_0" : 2
                    },
                    "indices" : 3,
                    "material" : 0
                }
            ]
        },
        {
            "name" : "Cylinder.055",
            "primitives" : [
                {
                    "attributes" : {
                        "POSITION" : 4,
                        "NORMAL" : 5,
                        "TEXCOORD_0" : 6
                    },
                    "indices" : 7,
                    "material" : 1
                }
            ]
        }
    ],
    "accessors" : [
        {
            "bufferView" : 0,
            "componentType" : 5126,
            "count" : 986,
            "max" : [
                1.0004962682724,
                3.097156524658203,
                1.0004962682724
            ],
            "min" : [
                -1.0004962682724,
                -1.3365070819854736,
                -1.0004962682724
            ],
            "type" : "VEC3"
        },
        {
            "bufferView" : 1,
            "componentType" : 5126,
            "count" : 986,
            "type" : "VEC3"
        },
        {
            "bufferView" : 2,
            "componentType" : 5126,
            "count" : 986,
            "type" : "VEC2"
        },
        {
            "bufferView" : 3,
            "componentType" : 5123,
            "count" : 4968,
            "type" : "SCALAR"
        },
        {
            "bufferView" : 4,
            "componentType" : 5126,
            "count" : 2046,
            "max" : [
                5.361893653869629,
                5.593634605407715,
                1.1207664012908936
            ],
            "min" : [
                -1.120737910270691,
                -10.774497032165527,
                -1.1258583068847656
            ],
            "type" : "VEC3"
        },
        {
            "bufferView" : 5,
            "componentType" : 5126,
            "count" : 2046,
            "type" : "VEC3"
        },
        {
            "bufferView" : 6,
            "componentType" : 5126,
            "count" : 2046,
            "type" : "VEC2"
        },
        {
            "bufferView" : 7,
            "componentType" : 5123,
            "count" : 11700,
            "type" : "SCALAR"
        }
    ],
    "bufferViews" : [
        {
            "buffer" : 0,
            "byteLength" : 11832,
            "byteOffset" : 0
        },
        {
            "buffer" : 0,
            "byteLength" : 11832,
            "byteOffset" : 11832
        },
        {
            "buffer" : 0,
            "byteLength" : 7888,
            "byteOffset" : 23664
        },
        {
            "buffer" : 0,
            "byteLength" : 9936,
            "byteOffset" : 31552
        },
        {
            "buffer" : 0,
            "byteLength" : 24552,
            "byteOffset" : 41488
        },
        {
            "buffer" : 0,
            "byteLength" : 24552,
            "byteOffset" : 66040
        },
        {
            "buffer" : 0,
            "byteLength" : 16368,
            "byteOffset" : 90592
        },
        {
            "buffer" : 0,
            "byteLength" : 23400,
            "byteOffset" : 106960
        }
    ],
    "buffers" : [
        {
            "byteLength" : 130360,
            "uri" : "data:application/octet-stream;base64,"
        }
    ]
}
