{
    "asset" : {
        "generator" : "Khronos glTF Blender I/O v1.4.40",
        "version" : "2.0"
    },
    "extensionsUsed" : [
        "KHR_materials_transmission"
    ],
    "scene" : 0,
    "scenes" : [
        {
            "extras" : {
                "glTF2ExportSettings" : {
                    "export_apply" : 1,
                    "export_extras" : 1,
                    "export_format" : "GLTF_EMBEDDED",
                    "use_selection" : 1
                }
            },
            "name" : "Scene",
            "nodes" : [
                0,
                1,
                2,
                3
            ]
        }
    ],
    "nodes" : [
        {
            "mesh" : 0,
            "name" : "Cylinder.020",
            "scale" : [
                -0.0068991719745099545,
                -0.0068991719745099545,
                -0.0068991719745099545
            ],
            "translation" : [
                0.07786499708890915,
                0.060960378497838974,
                0.0027968219947069883
            ]
        },
        {
            "mesh" : 1,
            "name" : "Cylinder.024",
            "scale" : [
                -0.0068991719745099545,
                -0.0068991719745099545,
                -0.0068991719745099545
            ],
            "translation" : [
                0.07786478102207184,
                0.060960378497838974,
                0.0027968219947069883
            ]
        },
        {
            "mesh" : 2,
            "name" : "Cylinder.025",
            "scale" : [
                0.0008859148947522044,
                0.0022913452703505754,
                0.0008859148947522044
            ],
            "translation" : [
                0.07786499708890915,
                0.13318388164043427,
                0.0027970001101493835
            ]
        },
        {
            "mesh" : 3,
            "name" : "Cylinder.026",
            "scale" : [
                0.003288841340690851,
                0.0022913452703505754,
                0.003288841340690851
            ],
            "translation" : [
                0.07786499708890915,
                0.13318388164043427,
                0.0027970001101493835
            ]
        }
    ],
    "materials" : [
        {
            "alphaMode" : "BLEND",
            "doubleSided" : true,
            "extensions" : {
                "KHR_materials_transmission" : {
                    "transmissionFactor" : 1
                }
            },
            "name" : "Material.001",
            "pbrMetallicRoughness" : {
                "baseColorFactor" : [
                    1,
                    1,
                    1,
                    0.20000000298023224
                ],
                "metallicFactor" : 0,
                "roughnessFactor" : 0.10000000149011612
            }
        },
        {
            "doubleSided" : true,
            "extensions" : {
                "KHR_materials_transmission" : {
                    "transmissionFactor" : 1
                }
            },
            "name" : "Material.004",
            "pbrMetallicRoughness" : {
                "baseColorFactor" : [
                    0,
                    0,
                    0,
                    1
                ],
                "metallicFactor" : 0,
                "roughnessFactor" : 0.10000000149011612
            }
        }
    ],
    "meshes" : [
        {
            "name" : "Cylinder.058",
            "primitives" : [
                {
                    "attributes" : {
                        "POSITION" : 0,
                        "NORMAL" : 1,
                        "TEXCOORD_0" : 2
                    },
                    "indices" : 3,
                    "material" : 0
                }
            ]
        },
        {
            "name" : "Cylinder.059",
            "primitives" : [
                {
                    "attributes" : {
                        "POSITION" : 4,
                        "NORMAL" : 5,
                        "TEXCOORD_0" : 6
                    },
                    "indices" : 7,
                    "material" : 1
                }
            ]
        },
        {
            "name" : "Cylinder.060",
            "primitives" : [
                {
                    "attributes" : {
                        "POSITION" : 8,
                        "NORMAL" : 9,
                        "TEXCOORD_0" : 10
                    },
                    "indices" : 11,
                    "material" : 0
                }
            ]
        },
        {
            "name" : "Cylinder.061",
            "primitives" : [
                {
                    "attributes" : {
                        "POSITION" : 12,
                        "NORMAL" : 13,
                        "TEXCOORD_0" : 14
                    },
                    "indices" : 11,
                    "material" : 0
                }
            ]
        }
    ],
    "accessors" : [
        {
            "bufferView" : 0,
            "componentType" : 5126,
            "count" : 824,
            "max" : [
                1,
                24.4028377532959,
                1
            ],
            "min" : [
                -1,
                -36.17003631591797,
                -1
            ],
            "type" : "VEC3"
        },
        {
            "bufferView" : 1,
            "componentType" : 5126,
            "count" : 824,
            "type" : "VEC3"
        },
        {
            "bufferView" : 2,
            "componentType" : 5126,
            "count" : 824,
            "type" : "VEC2"
        },
        {
            "bufferView" : 3,
            "componentType" : 5123,
            "count" : 4506,
            "type" : "SCALAR"
        },
        {
            "bufferView" : 4,
            "componentType" : 5126,
            "count" : 164,
            "max" : [
                0.6020973324775696,
                27.333465576171875,
                0.6020932197570801
            ],
            "min" : [
                -0.6020946502685547,
                24.4028377532959,
                -0.6020933985710144
            ],
            "type" : "VEC3"
        },
        {
            "bufferView" : 5,
            "componentType" : 5126,
            "count" : 164,
            "type" : "VEC3"
        },
        {
            "bufferView" : 6,
            "componentType" : 5126,
            "count" : 164,
            "type" : "VEC2"
        },
        {
            "bufferView" : 7,
            "componentType" : 5123,
            "count" : 666,
            "type" : "SCALAR"
        },
        {
            "bufferView" : 8,
            "componentType" : 5126,
            "count" : 130,
            "max" : [
                1,
                72.28514862060547,
                1
            ],
            "min" : [
                -1,
                -106.15308380126953,
                -1
            ],
            "type" : "VEC3"
        },
        {
            "bufferView" : 9,
            "componentType" : 5126,
            "count" : 130,
            "type" : "VEC3"
        },
        {
            "bufferView" : 10,
            "componentType" : 5126,
            "count" : 130,
            "type" : "VEC2"
        },
        {
            "bufferView" : 11,
            "componentType" : 5123,
            "count" : 372,
            "type" : "SCALAR"
        },
        {
            "bufferView" : 12,
            "componentType" : 5126,
            "count" : 130,
            "max" : [
                1,
                72.28514862060547,
                1
            ],
            "min" : [
                -1,
                -106.15308380126953,
                -1
            ],
            "type" : "VEC3"
        },
        {
            "bufferView" : 13,
            "componentType" : 5126,
            "count" : 130,
            "type" : "VEC3"
        },
        {
            "bufferView" : 14,
            "componentType" : 5126,
            "count" : 130,
            "type" : "VEC2"
        }
    ],
    "bufferViews" : [
        {
            "buffer" : 0,
            "byteLength" : 9888,
            "byteOffset" : 0
        },
        {
            "buffer" : 0,
            "byteLength" : 9888,
            "byteOffset" : 9888
        },
        {
            "buffer" : 0,
            "byteLength" : 6592,
            "byteOffset" : 19776
        },
        {
            "buffer" : 0,
            "byteLength" : 9012,
            "byteOffset" : 26368
        },
        {
            "buffer" : 0,
            "byteLength" : 1968,
            "byteOffset" : 35380
        },
        {
            "buffer" : 0,
            "byteLength" : 1968,
            "byteOffset" : 37348
        },
        {
            "buffer" : 0,
            "byteLength" : 1312,
            "byteOffset" : 39316
        },
        {
            "buffer" : 0,
            "byteLength" : 1332,
            "byteOffset" : 40628
        },
        {
            "buffer" : 0,
            "byteLength" : 1560,
            "byteOffset" : 41960
        },
        {
            "buffer" : 0,
            "byteLength" : 1560,
            "byteOffset" : 43520
        },
        {
            "buffer" : 0,
            "byteLength" : 1040,
            "byteOffset" : 45080
        },
        {
            "buffer" : 0,
            "byteLength" : 744,
            "byteOffset" : 46120
        },
        {
            "buffer" : 0,
            "byteLength" : 1560,
            "byteOffset" : 46864
        },
        {
            "buffer" : 0,
            "byteLength" : 1560,
            "byteOffset" : 48424
        },
        {
            "buffer" : 0,
            "byteLength" : 1040,
            "byteOffset" : 49984
        }
    ],
    "buffers" : [
        {
            "byteLength" : 51024,
            "uri" : "data:application/octet-stream;base64,"
        }
    ]
}
