{
    "asset" : {
        "generator" : "Khronos glTF Blender I/O v1.4.40",
        "version" : "2.0"
    },
    "scene" : 0,
    "scenes" : [
        {
            "name" : "Scene",
            "nodes" : [
                0,
                1
            ]
        }
    ],
    "nodes" : [
        {
            "mesh" : 0,
            "name" : "Cylinder.017",
            "rotation" : [
                0.7071068286895752,
                0,
                0,
                0.7071068286895752
            ],
            "scale" : [
                1,
                0.8689345121383667,
                1
            ],
            "translation" : [
                0.6645607352256775,
                0.5825439691543579,
                0.006563578732311726
            ]
        },
        {
            "mesh" : 1,
            "name" : "Plane.002",
            "scale" : [
                0.148248553276062,
                0.148248553276062,
                0.148248553276062
            ],
            "translation" : [
                0.8033509850502014,
                0.5870554447174072,
                0.005458950996398926
            ]
        }
    ],
    "materials" : [
        {
            "doubleSided" : true,
            "name" : "Material.027",
            "pbrMetallicRoughness" : {
                "baseColorFactor" : [
                    0.19598864018917084,
                    0.19598864018917084,
                    0.19598864018917084,
                    1
                ],
                "roughnessFactor" : 0.5
            }
        },
        {
            "doubleSided" : true,
            "name" : "Metall Texture.003",
            "pbrMetallicRoughness" : {
                "baseColorTexture" : {
                    "index" : 0,
                    "texCoord" : 0
                },
                "metallicRoughnessTexture" : {
                    "index" : 1,
                    "texCoord" : 0
                },
                "roughnessFactor" : 0.4000000059604645
            }
        }
    ],
    "meshes" : [
        {
            "name" : "Cylinder.050",
            "primitives" : [
                {
                    "attributes" : {
                        "POSITION" : 0,
                        "NORMAL" : 1,
                        "TEXCOORD_0" : 2
                    },
                    "indices" : 3,
                    "material" : 0
                }
            ]
        },
        {
            "name" : "Plane.002",
            "primitives" : [
                {
                    "attributes" : {
                        "POSITION" : 4,
                        "NORMAL" : 5,
                        "TEXCOORD_0" : 6
                    },
                    "indices" : 7,
                    "material" : 1
                }
            ]
        }
    ],
    "textures" : [
        {
            "sampler" : 0,
            "source" : 0
        },
        {
            "sampler" : 0,
            "source" : 1
        }
    ],
    "images" : [
        {
            "bufferView" : 8,
            "mimeType" : "image/jpeg",
            "name" : "MetalStainlessSteelBrushedElongated005_COL_3K_METALNESS"
        },
        {
            "bufferView" : 9,
            "mimeType" : "image/png",
            "name" : "MetalStainlessSteelBrushedElongated005_METALNESS_3K_METALNESS"
        }
    ],
    "accessors" : [
        {
            "bufferView" : 0,
            "componentType" : 5126,
            "count" : 14820,
            "max" : [
                0.28274983167648315,
                0.16500002145767212,
                0.0002500000991858542
            ],
            "min" : [
                -0.0002500000409781933,
                -0.16500002145767212,
                -0.00024999992456287146
            ],
            "type" : "VEC3"
        },
        {
            "bufferView" : 1,
            "componentType" : 5126,
            "count" : 14820,
            "type" : "VEC3"
        },
        {
            "bufferView" : 2,
            "componentType" : 5126,
            "count" : 14820,
            "type" : "VEC2"
        },
        {
            "bufferView" : 3,
            "componentType" : 5123,
            "count" : 42408,
            "type" : "SCALAR"
        },
        {
            "bufferView" : 4,
            "componentType" : 5126,
            "count" : 24,
            "max" : [
                1.0109584331512451,
                0,
                1.0109584331512451
            ],
            "min" : [
                -1.0109584331512451,
                -0.05711045116186142,
                -1.0109584331512451
            ],
            "type" : "VEC3"
        },
        {
            "bufferView" : 5,
            "componentType" : 5126,
            "count" : 24,
            "type" : "VEC3"
        },
        {
            "bufferView" : 6,
            "componentType" : 5126,
            "count" : 24,
            "type" : "VEC2"
        },
        {
            "bufferView" : 7,
            "componentType" : 5123,
            "count" : 144,
            "type" : "SCALAR"
        }
    ],
    "bufferViews" : [
        {
            "buffer" : 0,
            "byteLength" : 177840,
            "byteOffset" : 0
        },
        {
            "buffer" : 0,
            "byteLength" : 177840,
            "byteOffset" : 177840
        },
        {
            "buffer" : 0,
            "byteLength" : 118560,
            "byteOffset" : 355680
        },
        {
            "buffer" : 0,
            "byteLength" : 84816,
            "byteOffset" : 474240
        },
        {
            "buffer" : 0,
            "byteLength" : 288,
            "byteOffset" : 559056
        },
        {
            "buffer" : 0,
            "byteLength" : 288,
            "byteOffset" : 559344
        },
        {
            "buffer" : 0,
            "byteLength" : 192,
            "byteOffset" : 559632
        },
        {
            "buffer" : 0,
            "byteLength" : 288,
            "byteOffset" : 559824
        },
        {
            "buffer" : 0,
            "byteLength" : 637978,
            "byteOffset" : 560112
        },
        {
            "buffer" : 0,
            "byteLength" : 130985,
            "byteOffset" : 1198092
        }
    ],
    "samplers" : [
        {
            "magFilter" : 9729,
            "minFilter" : 9986
        }
    ],
    "buffers" : [
        {
            "byteLength" : 1329080,
            "uri" : "data:application/octet-stream;base64,"
        }
    ]
}
