{
    "asset" : {
        "generator" : "Khronos glTF Blender I/O v1.4.40",
        "version" : "2.0"
    },
    "extensionsUsed" : [
        "KHR_materials_transmission"
    ],
    "scene" : 0,
    "scenes" : [
        {
            "extras" : {
                "glTF2ExportSettings" : {
                    "export_apply" : 1,
                    "export_extras" : 1,
                    "export_format" : "GLTF_EMBEDDED",
                    "use_selection" : 1
                }
            },
            "name" : "Scene",
            "nodes" : [
                0
            ]
        }
    ],
    "nodes" : [
        {
            "mesh" : 0,
            "name" : "Cylinder.012",
            "scale" : [
                0.09812712669372559,
                0.09812712669372559,
                0.09812712669372559
            ],
            "translation" : [
                0.7126328349113464,
                0.0024319998919963837,
                0.00329799996688962
            ]
        }
    ],
    "materials" : [
        {
            "alphaMode" : "BLEND",
            "doubleSided" : true,
            "extensions" : {
                "KHR_materials_transmission" : {
                    "transmissionFactor" : 1
                }
            },
            "name" : "Material.001",
            "pbrMetallicRoughness" : {
                "baseColorFactor" : [
                    1,
                    1,
                    1,
                    0.20000000298023224
                ],
                "metallicFactor" : 0,
                "roughnessFactor" : 0.10000000149011612
            }
        }
    ],
    "meshes" : [
        {
            "name" : "Cylinder.001",
            "primitives" : [
                {
                    "attributes" : {
                        "POSITION" : 0,
                        "NORMAL" : 1,
                        "TEXCOORD_0" : 2
                    },
                    "indices" : 3,
                    "material" : 0
                }
            ]
        }
    ],
    "accessors" : [
        {
            "bufferView" : 0,
            "componentType" : 5126,
            "count" : 2542,
            "max" : [
                0.5834744572639465,
                0.9530125856399536,
                0.5834757089614868
            ],
            "min" : [
                -0.5834764838218689,
                -1.0198595523834229,
                -0.5834753513336182
            ],
            "type" : "VEC3"
        },
        {
            "bufferView" : 1,
            "componentType" : 5126,
            "count" : 2542,
            "type" : "VEC3"
        },
        {
            "bufferView" : 2,
            "componentType" : 5126,
            "count" : 2542,
            "type" : "VEC2"
        },
        {
            "bufferView" : 3,
            "componentType" : 5123,
            "count" : 13056,
            "type" : "SCALAR"
        }
    ],
    "bufferViews" : [
        {
            "buffer" : 0,
            "byteLength" : 30504,
            "byteOffset" : 0
        },
        {
            "buffer" : 0,
            "byteLength" : 30504,
            "byteOffset" : 30504
        },
        {
            "buffer" : 0,
            "byteLength" : 20336,
            "byteOffset" : 61008
        },
        {
            "buffer" : 0,
            "byteLength" : 26112,
            "byteOffset" : 81344
        }
    ],
    "buffers" : [
        {
            "byteLength" : 107456,
            "uri" : "data:application/octet-stream;base64,"
        }
    ]
}
