{
    "asset" : {
        "generator" : "Khronos glTF Blender I/O v1.4.40",
        "version" : "2.0"
    },
    "extensionsUsed" : [
        "KHR_materials_transmission"
    ],
    "scene" : 0,
    "scenes" : [
        {
            "extras" : {
                "glTF2ExportSettings" : {
                    "export_apply" : 1,
                    "export_extras" : 1,
                    "export_format" : "GLTF_EMBEDDED",
                    "use_selection" : 1
                }
            },
            "name" : "Scene",
            "nodes" : [
                0
            ]
        }
    ],
    "nodes" : [
        {
            "mesh" : 0,
            "name" : "Cylinder.015",
            "scale" : [
                0.38752126693725586,
                0.1524912267923355,
                0.38752126693725586
            ],
            "translation" : [
                0.7132610082626343,
                0.026659321039915085,
                0.00329799996688962
            ]
        }
    ],
    "materials" : [
        {
            "alphaMode" : "BLEND",
            "doubleSided" : true,
            "extensions" : {
                "KHR_materials_transmission" : {
                    "transmissionFactor" : 1
                }
            },
            "name" : "Material.001",
            "pbrMetallicRoughness" : {
                "baseColorFactor" : [
                    1,
                    1,
                    1,
                    0.20000000298023224
                ],
                "metallicFactor" : 0,
                "roughnessFactor" : 0.10000000149011612
            }
        }
    ],
    "meshes" : [
        {
            "name" : "Cylinder.045",
            "primitives" : [
                {
                    "attributes" : {
                        "POSITION" : 0,
                        "NORMAL" : 1,
                        "TEXCOORD_0" : 2
                    },
                    "indices" : 3,
                    "material" : 0
                }
            ]
        }
    ],
    "accessors" : [
        {
            "bufferView" : 0,
            "componentType" : 5126,
            "count" : 2056,
            "max" : [
                0.11208473145961761,
                0.9522591233253479,
                0.11208487302064896
            ],
            "min" : [
                -0.1120849996805191,
                -1.1421259641647339,
                -0.11208485066890717
            ],
            "type" : "VEC3"
        },
        {
            "bufferView" : 1,
            "componentType" : 5126,
            "count" : 2056,
            "type" : "VEC3"
        },
        {
            "bufferView" : 2,
            "componentType" : 5126,
            "count" : 2056,
            "type" : "VEC2"
        },
        {
            "bufferView" : 3,
            "componentType" : 5123,
            "count" : 8424,
            "type" : "SCALAR"
        }
    ],
    "bufferViews" : [
        {
            "buffer" : 0,
            "byteLength" : 24672,
            "byteOffset" : 0
        },
        {
            "buffer" : 0,
            "byteLength" : 24672,
            "byteOffset" : 24672
        },
        {
            "buffer" : 0,
            "byteLength" : 16448,
            "byteOffset" : 49344
        },
        {
            "buffer" : 0,
            "byteLength" : 16848,
            "byteOffset" : 65792
        }
    ],
    "buffers" : [
        {
            "byteLength" : 82640,
            "uri" : "data:application/octet-stream;base64,"
        }
    ]
}
