{
    "asset" : {
        "generator" : "Khronos glTF Blender I/O v1.4.40",
        "version" : "2.0"
    },
    "extensionsUsed" : [
        "KHR_materials_transmission"
    ],
    "scene" : 0,
    "scenes" : [
        {
            "extras" : {
                "glTF2ExportSettings" : {
                    "export_apply" : 1,
                    "export_extras" : 1,
                    "export_format" : "GLTF_EMBEDDED",
                    "use_selection" : 1
                }
            },
            "name" : "Scene",
            "nodes" : [
                0
            ]
        }
    ],
    "nodes" : [
        {
            "mesh" : 0,
            "name" : "Reagenzglas_Rund_1",
            "scale" : [
                0.35545700788497925,
                0.48041778802871704,
                0.35545724630355835
            ],
            "translation" : [
                -0.10839292407035828,
                0.09016633778810501,
                0
            ]
        }
    ],
    "materials" : [
        {
            "alphaMode" : "BLEND",
            "doubleSided" : true,
            "extensions" : {
                "KHR_materials_transmission" : {
                    "transmissionFactor" : 1
                }
            },
            "name" : "Material.001",
            "pbrMetallicRoughness" : {
                "baseColorFactor" : [
                    1,
                    1,
                    1,
                    0.20000000298023224
                ],
                "metallicFactor" : 0,
                "roughnessFactor" : 0.10000000149011612
            }
        }
    ],
    "meshes" : [
        {
            "name" : "Cylinder.007",
            "primitives" : [
                {
                    "attributes" : {
                        "POSITION" : 0,
                        "NORMAL" : 1,
                        "TEXCOORD_0" : 2
                    },
                    "indices" : 3,
                    "material" : 0
                }
            ]
        }
    ],
    "accessors" : [
        {
            "bufferView" : 0,
            "componentType" : 5126,
            "count" : 1046,
            "max" : [
                0.022506220266222954,
                0.16182953119277954,
                0.0225062258541584
            ],
            "min" : [
                -0.022506220266222954,
                -0.17121392488479614,
                -0.022506222128868103
            ],
            "type" : "VEC3"
        },
        {
            "bufferView" : 1,
            "componentType" : 5126,
            "count" : 1046,
            "type" : "VEC3"
        },
        {
            "bufferView" : 2,
            "componentType" : 5126,
            "count" : 1046,
            "type" : "VEC2"
        },
        {
            "bufferView" : 3,
            "componentType" : 5123,
            "count" : 5940,
            "type" : "SCALAR"
        }
    ],
    "bufferViews" : [
        {
            "buffer" : 0,
            "byteLength" : 12552,
            "byteOffset" : 0
        },
        {
            "buffer" : 0,
            "byteLength" : 12552,
            "byteOffset" : 12552
        },
        {
            "buffer" : 0,
            "byteLength" : 8368,
            "byteOffset" : 25104
        },
        {
            "buffer" : 0,
            "byteLength" : 11880,
            "byteOffset" : 33472
        }
    ],
    "buffers" : [
        {
            "byteLength" : 45352,
            "uri" : "data:application/octet-stream;base64,"
        }
    ]
}
